<?xml version="1.0" encoding="UTF-8" standalone="no"?>
<!DOCTYPE svg PUBLIC "-//W3C//DTD SVG 1.1//EN"
 "http://www.w3.org/Graphics/SVG/1.1/DTD/svg11.dtd">
<!-- Generated by graphviz version 2.43.0 (0)
 -->
<!-- Title: %3 Pages: 1 -->
<svg width="2218pt" height="836pt"
 viewBox="0.00 0.00 2218.13 836.00" xmlns="http://www.w3.org/2000/svg" xmlns:xlink="http://www.w3.org/1999/xlink">
<g id="graph0" class="graph" transform="scale(1 1) rotate(0) translate(4 832)">
<title>%3</title>
<polygon fill="white" stroke="transparent" points="-4,4 -4,-832 2214.13,-832 2214.13,4 -4,4"/>
<!-- [root] module.vpc.aws_default_route_table.route_table (expand) -->
<g id="node1" class="node">
<title>[root] module.vpc.aws_default_route_table.route_table (expand)</title>
<polygon fill="none" stroke="black" points="1539,-324 1178,-324 1178,-288 1539,-288 1539,-324"/>
<text text-anchor="middle" x="1358.5" y="-302.3" font-family="Times,serif" font-size="14.00">module.vpc.aws_default_route_table.route_table</text>
</g>
<!-- [root] module.vpc.aws_internet_gateway.rt_igw (expand) -->
<g id="node3" class="node">
<title>[root] module.vpc.aws_internet_gateway.rt_igw (expand)</title>
<polygon fill="none" stroke="black" points="1428,-252 1119,-252 1119,-216 1428,-216 1428,-252"/>
<text text-anchor="middle" x="1273.5" y="-230.3" font-family="Times,serif" font-size="14.00">module.vpc.aws_internet_gateway.rt_igw</text>
</g>
<!-- [root] module.vpc.aws_default_route_table.route_table (expand)&#45;&gt;[root] module.vpc.aws_internet_gateway.rt_igw (expand) -->
<g id="edge10" class="edge">
<title>[root] module.vpc.aws_default_route_table.route_table (expand)&#45;&gt;[root] module.vpc.aws_internet_gateway.rt_igw (expand)</title>
<path fill="none" stroke="black" d="M1337.49,-287.7C1326.78,-278.88 1313.61,-268.03 1302,-258.47"/>
<polygon fill="black" stroke="black" points="1304.21,-255.76 1294.27,-252.1 1299.76,-261.16 1304.21,-255.76"/>
</g>
<!-- [root] module.vpc.aws_eip.rt_nat_eip (expand) -->
<g id="node2" class="node">
<title>[root] module.vpc.aws_eip.rt_nat_eip (expand)</title>
<polygon fill="none" stroke="black" points="887,-468 652,-468 652,-432 887,-432 887,-468"/>
<text text-anchor="middle" x="769.5" y="-446.3" font-family="Times,serif" font-size="14.00">module.vpc.aws_eip.rt_nat_eip</text>
</g>
<!-- [root] module.vpc.aws_route_table_association.k8s_A (expand) -->
<g id="node8" class="node">
<title>[root] module.vpc.aws_route_table_association.k8s_A (expand)</title>
<polygon fill="none" stroke="black" points="1241.5,-396 891.5,-396 891.5,-360 1241.5,-360 1241.5,-396"/>
<text text-anchor="middle" x="1066.5" y="-374.3" font-family="Times,serif" font-size="14.00">module.vpc.aws_route_table_association.k8s_A</text>
</g>
<!-- [root] module.vpc.aws_eip.rt_nat_eip (expand)&#45;&gt;[root] module.vpc.aws_route_table_association.k8s_A (expand) -->
<g id="edge11" class="edge">
<title>[root] module.vpc.aws_eip.rt_nat_eip (expand)&#45;&gt;[root] module.vpc.aws_route_table_association.k8s_A (expand)</title>
<path fill="none" stroke="black" d="M841.77,-431.97C884.8,-421.83 939.53,-408.93 984.2,-398.4"/>
<polygon fill="black" stroke="black" points="985.23,-401.75 994.16,-396.05 983.62,-394.94 985.23,-401.75"/>
</g>
<!-- [root] module.vpc.aws_vpc.rt_vpc (expand) -->
<g id="node17" class="node">
<title>[root] module.vpc.aws_vpc.rt_vpc (expand)</title>
<polygon fill="none" stroke="black" points="1155,-180 944,-180 944,-144 1155,-144 1155,-180"/>
<text text-anchor="middle" x="1049.5" y="-158.3" font-family="Times,serif" font-size="14.00">module.vpc.aws_vpc.rt_vpc</text>
</g>
<!-- [root] module.vpc.aws_internet_gateway.rt_igw (expand)&#45;&gt;[root] module.vpc.aws_vpc.rt_vpc (expand) -->
<g id="edge12" class="edge">
<title>[root] module.vpc.aws_internet_gateway.rt_igw (expand)&#45;&gt;[root] module.vpc.aws_vpc.rt_vpc (expand)</title>
<path fill="none" stroke="black" d="M1218.99,-215.97C1187.28,-206.06 1147.14,-193.51 1113.89,-183.12"/>
<polygon fill="black" stroke="black" points="1114.84,-179.75 1104.25,-180.11 1112.76,-186.43 1114.84,-179.75"/>
</g>
<!-- [root] module.vpc.aws_nat_gateway.rt_nat_gw (expand) -->
<g id="node4" class="node">
<title>[root] module.vpc.aws_nat_gateway.rt_nat_gw (expand)</title>
<polygon fill="none" stroke="black" points="903.5,-540 603.5,-540 603.5,-504 903.5,-504 903.5,-540"/>
<text text-anchor="middle" x="753.5" y="-518.3" font-family="Times,serif" font-size="14.00">module.vpc.aws_nat_gateway.rt_nat_gw</text>
</g>
<!-- [root] module.vpc.aws_nat_gateway.rt_nat_gw (expand)&#45;&gt;[root] module.vpc.aws_eip.rt_nat_eip (expand) -->
<g id="edge13" class="edge">
<title>[root] module.vpc.aws_nat_gateway.rt_nat_gw (expand)&#45;&gt;[root] module.vpc.aws_eip.rt_nat_eip (expand)</title>
<path fill="none" stroke="black" d="M757.46,-503.7C759.22,-495.98 761.34,-486.71 763.3,-478.11"/>
<polygon fill="black" stroke="black" points="766.77,-478.63 765.59,-468.1 759.95,-477.07 766.77,-478.63"/>
</g>
<!-- [root] module.vpc.aws_route_table.rt_nat_gw_rt (expand) -->
<g id="node5" class="node">
<title>[root] module.vpc.aws_route_table.rt_nat_gw_rt (expand)</title>
<polygon fill="none" stroke="black" points="667,-612 354,-612 354,-576 667,-576 667,-612"/>
<text text-anchor="middle" x="510.5" y="-590.3" font-family="Times,serif" font-size="14.00">module.vpc.aws_route_table.rt_nat_gw_rt</text>
</g>
<!-- [root] module.vpc.aws_route_table.rt_nat_gw_rt (expand)&#45;&gt;[root] module.vpc.aws_nat_gateway.rt_nat_gw (expand) -->
<g id="edge14" class="edge">
<title>[root] module.vpc.aws_route_table.rt_nat_gw_rt (expand)&#45;&gt;[root] module.vpc.aws_nat_gateway.rt_nat_gw (expand)</title>
<path fill="none" stroke="black" d="M569.63,-575.97C604.18,-566.01 647.95,-553.41 684.12,-542.99"/>
<polygon fill="black" stroke="black" points="685.46,-546.24 694.1,-540.11 683.52,-539.52 685.46,-546.24"/>
</g>
<!-- [root] module.vpc.aws_route_table_association.DB_A (expand) -->
<g id="node6" class="node">
<title>[root] module.vpc.aws_route_table_association.DB_A (expand)</title>
<polygon fill="none" stroke="black" points="1032,-612 685,-612 685,-576 1032,-576 1032,-612"/>
<text text-anchor="middle" x="858.5" y="-590.3" font-family="Times,serif" font-size="14.00">module.vpc.aws_route_table_association.DB_A</text>
</g>
<!-- [root] module.vpc.aws_route_table_association.DB_A (expand)&#45;&gt;[root] module.vpc.aws_default_route_table.route_table (expand) -->
<g id="edge15" class="edge">
<title>[root] module.vpc.aws_route_table_association.DB_A (expand)&#45;&gt;[root] module.vpc.aws_default_route_table.route_table (expand)</title>
<path fill="none" stroke="black" d="M876.15,-575.74C902.26,-550.25 948.34,-505.34 950.5,-504 1070.78,-429.06 1127.34,-466.09 1250.5,-396 1281.96,-378.1 1313.37,-350.89 1334.15,-331.27"/>
<polygon fill="black" stroke="black" points="1336.77,-333.61 1341.56,-324.16 1331.92,-328.56 1336.77,-333.61"/>
</g>
<!-- [root] module.vpc.aws_subnet.rt_subnet_db_A (expand) -->
<g id="node11" class="node">
<title>[root] module.vpc.aws_subnet.rt_subnet_db_A (expand)</title>
<polygon fill="none" stroke="black" points="377.5,-324 77.5,-324 77.5,-288 377.5,-288 377.5,-324"/>
<text text-anchor="middle" x="227.5" y="-302.3" font-family="Times,serif" font-size="14.00">module.vpc.aws_subnet.rt_subnet_db_A</text>
</g>
<!-- [root] module.vpc.aws_route_table_association.DB_A (expand)&#45;&gt;[root] module.vpc.aws_subnet.rt_subnet_db_A (expand) -->
<g id="edge16" class="edge">
<title>[root] module.vpc.aws_route_table_association.DB_A (expand)&#45;&gt;[root] module.vpc.aws_subnet.rt_subnet_db_A (expand)</title>
<path fill="none" stroke="black" d="M706.37,-575.94C663.36,-568.05 617.21,-556.6 576.5,-540 444.37,-486.12 310.13,-378.29 254.35,-330.61"/>
<polygon fill="black" stroke="black" points="256.56,-327.89 246.7,-324.02 252,-333.2 256.56,-327.89"/>
</g>
<!-- [root] module.vpc.aws_route_table_association.DB_B (expand) -->
<g id="node7" class="node">
<title>[root] module.vpc.aws_route_table_association.DB_B (expand)</title>
<polygon fill="none" stroke="black" points="1435.5,-612 1087.5,-612 1087.5,-576 1435.5,-576 1435.5,-612"/>
<text text-anchor="middle" x="1261.5" y="-590.3" font-family="Times,serif" font-size="14.00">module.vpc.aws_route_table_association.DB_B</text>
</g>
<!-- [root] module.vpc.aws_route_table_association.DB_B (expand)&#45;&gt;[root] module.vpc.aws_default_route_table.route_table (expand) -->
<g id="edge17" class="edge">
<title>[root] module.vpc.aws_route_table_association.DB_B (expand)&#45;&gt;[root] module.vpc.aws_default_route_table.route_table (expand)</title>
<path fill="none" stroke="black" d="M1265.91,-575.91C1273.67,-546.32 1290.64,-483.75 1308.5,-432 1320.41,-397.48 1336.41,-358.53 1347.07,-333.42"/>
<polygon fill="black" stroke="black" points="1350.3,-334.76 1351.01,-324.19 1343.86,-332.01 1350.3,-334.76"/>
</g>
<!-- [root] module.vpc.aws_subnet.rt_subnet_db_B (expand) -->
<g id="node12" class="node">
<title>[root] module.vpc.aws_subnet.rt_subnet_db_B (expand)</title>
<polygon fill="none" stroke="black" points="1261,-540 960,-540 960,-504 1261,-504 1261,-540"/>
<text text-anchor="middle" x="1110.5" y="-518.3" font-family="Times,serif" font-size="14.00">module.vpc.aws_subnet.rt_subnet_db_B</text>
</g>
<!-- [root] module.vpc.aws_route_table_association.DB_B (expand)&#45;&gt;[root] module.vpc.aws_subnet.rt_subnet_db_B (expand) -->
<g id="edge18" class="edge">
<title>[root] module.vpc.aws_route_table_association.DB_B (expand)&#45;&gt;[root] module.vpc.aws_subnet.rt_subnet_db_B (expand)</title>
<path fill="none" stroke="black" d="M1224.56,-575.88C1204.01,-566.35 1178.25,-554.41 1156.41,-544.28"/>
<polygon fill="black" stroke="black" points="1157.86,-541.1 1147.32,-540.07 1154.92,-547.45 1157.86,-541.1"/>
</g>
<!-- [root] module.vpc.aws_route_table_association.k8s_A (expand)&#45;&gt;[root] module.vpc.aws_default_route_table.route_table (expand) -->
<g id="edge19" class="edge">
<title>[root] module.vpc.aws_route_table_association.k8s_A (expand)&#45;&gt;[root] module.vpc.aws_default_route_table.route_table (expand)</title>
<path fill="none" stroke="black" d="M1137.56,-359.97C1179.85,-349.83 1233.66,-336.93 1277.59,-326.4"/>
<polygon fill="black" stroke="black" points="1278.47,-329.78 1287.38,-324.05 1276.84,-322.98 1278.47,-329.78"/>
</g>
<!-- [root] module.vpc.aws_subnet.rt_subnet_k8s_A (expand) -->
<g id="node13" class="node">
<title>[root] module.vpc.aws_subnet.rt_subnet_k8s_A (expand)</title>
<polygon fill="none" stroke="black" points="1160,-324 853,-324 853,-288 1160,-288 1160,-324"/>
<text text-anchor="middle" x="1006.5" y="-302.3" font-family="Times,serif" font-size="14.00">module.vpc.aws_subnet.rt_subnet_k8s_A</text>
</g>
<!-- [root] module.vpc.aws_route_table_association.k8s_A (expand)&#45;&gt;[root] module.vpc.aws_subnet.rt_subnet_k8s_A (expand) -->
<g id="edge20" class="edge">
<title>[root] module.vpc.aws_route_table_association.k8s_A (expand)&#45;&gt;[root] module.vpc.aws_subnet.rt_subnet_k8s_A (expand)</title>
<path fill="none" stroke="black" d="M1051.67,-359.7C1044.48,-351.3 1035.7,-341.07 1027.81,-331.86"/>
<polygon fill="black" stroke="black" points="1030.33,-329.42 1021.16,-324.1 1025.01,-333.97 1030.33,-329.42"/>
</g>
<!-- [root] module.vpc.aws_route_table_association.k8s_B (expand) -->
<g id="node9" class="node">
<title>[root] module.vpc.aws_route_table_association.k8s_B (expand)</title>
<polygon fill="none" stroke="black" points="1945,-612 1594,-612 1594,-576 1945,-576 1945,-612"/>
<text text-anchor="middle" x="1769.5" y="-590.3" font-family="Times,serif" font-size="14.00">module.vpc.aws_route_table_association.k8s_B</text>
</g>
<!-- [root] module.vpc.aws_route_table_association.k8s_B (expand)&#45;&gt;[root] module.vpc.aws_default_route_table.route_table (expand) -->
<g id="edge21" class="edge">
<title>[root] module.vpc.aws_route_table_association.k8s_B (expand)&#45;&gt;[root] module.vpc.aws_default_route_table.route_table (expand)</title>
<path fill="none" stroke="black" d="M1911.45,-575.94C1964.09,-563.31 2005.21,-541.51 1978.5,-504 1918.86,-420.25 1630.47,-355.98 1468.85,-325.85"/>
<polygon fill="black" stroke="black" points="1469.34,-322.38 1458.87,-324 1468.07,-329.26 1469.34,-322.38"/>
</g>
<!-- [root] module.vpc.aws_subnet.rt_subnet_k8s_B (expand) -->
<g id="node14" class="node">
<title>[root] module.vpc.aws_subnet.rt_subnet_k8s_B (expand)</title>
<polygon fill="none" stroke="black" points="1969.5,-540 1661.5,-540 1661.5,-504 1969.5,-504 1969.5,-540"/>
<text text-anchor="middle" x="1815.5" y="-518.3" font-family="Times,serif" font-size="14.00">module.vpc.aws_subnet.rt_subnet_k8s_B</text>
</g>
<!-- [root] module.vpc.aws_route_table_association.k8s_B (expand)&#45;&gt;[root] module.vpc.aws_subnet.rt_subnet_k8s_B (expand) -->
<g id="edge22" class="edge">
<title>[root] module.vpc.aws_route_table_association.k8s_B (expand)&#45;&gt;[root] module.vpc.aws_subnet.rt_subnet_k8s_B (expand)</title>
<path fill="none" stroke="black" d="M1780.87,-575.7C1786.22,-567.56 1792.7,-557.69 1798.61,-548.7"/>
<polygon fill="black" stroke="black" points="1801.69,-550.38 1804.26,-540.1 1795.84,-546.54 1801.69,-550.38"/>
</g>
<!-- [root] module.vpc.aws_subnet.rt_subnet_bastion_A (expand) -->
<g id="node10" class="node">
<title>[root] module.vpc.aws_subnet.rt_subnet_bastion_A (expand)</title>
<polygon fill="none" stroke="black" points="335,-468 0,-468 0,-432 335,-432 335,-468"/>
<text text-anchor="middle" x="167.5" y="-446.3" font-family="Times,serif" font-size="14.00">module.vpc.aws_subnet.rt_subnet_bastion_A</text>
</g>
<!-- [root] module.vpc.aws_subnet.rt_subnet_bastion_A (expand)&#45;&gt;[root] module.vpc.aws_vpc.rt_vpc (expand) -->
<g id="edge23" class="edge">
<title>[root] module.vpc.aws_subnet.rt_subnet_bastion_A (expand)&#45;&gt;[root] module.vpc.aws_vpc.rt_vpc (expand)</title>
<path fill="none" stroke="black" d="M219,-431.99C249.26,-421.85 288.17,-408.54 322.5,-396 488.24,-335.44 530.99,-323.09 692.5,-252 725.61,-237.43 731.18,-227.42 765.5,-216 819.6,-197.99 881.65,-185.53 933.92,-177.23"/>
<polygon fill="black" stroke="black" points="934.56,-180.68 943.9,-175.68 933.48,-173.76 934.56,-180.68"/>
</g>
<!-- [root] module.vpc.var.AWS_ZONE_A (expand) -->
<g id="node22" class="node">
<title>[root] module.vpc.var.AWS_ZONE_A (expand)</title>
<ellipse fill="none" stroke="black" cx="461.5" cy="-234" rx="221.76" ry="18"/>
<text text-anchor="middle" x="461.5" y="-230.3" font-family="Times,serif" font-size="14.00">[root] module.vpc.var.AWS_ZONE_A (expand)</text>
</g>
<!-- [root] module.vpc.aws_subnet.rt_subnet_bastion_A (expand)&#45;&gt;[root] module.vpc.var.AWS_ZONE_A (expand) -->
<g id="edge24" class="edge">
<title>[root] module.vpc.aws_subnet.rt_subnet_bastion_A (expand)&#45;&gt;[root] module.vpc.var.AWS_ZONE_A (expand)</title>
<path fill="none" stroke="black" d="M206.49,-431.91C252.42,-410.66 329.66,-371.36 386.5,-324 408.85,-305.38 429.78,-279.56 443.82,-260.52"/>
<polygon fill="black" stroke="black" points="446.74,-262.46 449.76,-252.31 441.07,-258.36 446.74,-262.46"/>
</g>
<!-- [root] module.vpc.aws_subnet.rt_subnet_db_A (expand)&#45;&gt;[root] module.vpc.aws_vpc.rt_vpc (expand) -->
<g id="edge25" class="edge">
<title>[root] module.vpc.aws_subnet.rt_subnet_db_A (expand)&#45;&gt;[root] module.vpc.aws_vpc.rt_vpc (expand)</title>
<path fill="none" stroke="black" d="M222,-287.65C216.83,-267.54 212.31,-234.76 230.5,-216 278.34,-166.66 719.27,-161.59 933.6,-162.08"/>
<polygon fill="black" stroke="black" points="933.62,-165.58 943.63,-162.11 933.64,-158.58 933.62,-165.58"/>
</g>
<!-- [root] module.vpc.aws_subnet.rt_subnet_db_A (expand)&#45;&gt;[root] module.vpc.var.AWS_ZONE_A (expand) -->
<g id="edge26" class="edge">
<title>[root] module.vpc.aws_subnet.rt_subnet_db_A (expand)&#45;&gt;[root] module.vpc.var.AWS_ZONE_A (expand)</title>
<path fill="none" stroke="black" d="M284.44,-287.97C318.33,-277.83 361.43,-264.94 396.62,-254.41"/>
<polygon fill="black" stroke="black" points="397.74,-257.73 406.32,-251.51 395.74,-251.02 397.74,-257.73"/>
</g>
<!-- [root] module.vpc.aws_subnet.rt_subnet_db_B (expand)&#45;&gt;[root] module.vpc.aws_vpc.rt_vpc (expand) -->
<g id="edge27" class="edge">
<title>[root] module.vpc.aws_subnet.rt_subnet_db_B (expand)&#45;&gt;[root] module.vpc.aws_vpc.rt_vpc (expand)</title>
<path fill="none" stroke="black" d="M1061.6,-503.9C1011.48,-484.33 933.8,-448.12 882.5,-396 857.12,-370.21 853.2,-359.12 844.5,-324 826.87,-252.82 913.68,-207.25 979.79,-183.38"/>
<polygon fill="black" stroke="black" points="981.1,-186.63 989.38,-180.02 978.78,-180.03 981.1,-186.63"/>
</g>
<!-- [root] module.vpc.var.AWS_ZONE_B (expand) -->
<g id="node23" class="node">
<title>[root] module.vpc.var.AWS_ZONE_B (expand)</title>
<ellipse fill="none" stroke="black" cx="1539.5" cy="-450" rx="221.76" ry="18"/>
<text text-anchor="middle" x="1539.5" y="-446.3" font-family="Times,serif" font-size="14.00">[root] module.vpc.var.AWS_ZONE_B (expand)</text>
</g>
<!-- [root] module.vpc.aws_subnet.rt_subnet_db_B (expand)&#45;&gt;[root] module.vpc.var.AWS_ZONE_B (expand) -->
<g id="edge28" class="edge">
<title>[root] module.vpc.aws_subnet.rt_subnet_db_B (expand)&#45;&gt;[root] module.vpc.var.AWS_ZONE_B (expand)</title>
<path fill="none" stroke="black" d="M1214.9,-503.97C1281.89,-493.03 1368.55,-478.89 1435.48,-467.97"/>
<polygon fill="black" stroke="black" points="1436.32,-471.38 1445.62,-466.32 1435.19,-464.47 1436.32,-471.38"/>
</g>
<!-- [root] module.vpc.aws_subnet.rt_subnet_k8s_A (expand)&#45;&gt;[root] module.vpc.aws_vpc.rt_vpc (expand) -->
<g id="edge29" class="edge">
<title>[root] module.vpc.aws_subnet.rt_subnet_k8s_A (expand)&#45;&gt;[root] module.vpc.aws_vpc.rt_vpc (expand)</title>
<path fill="none" stroke="black" d="M1011.69,-287.87C1019.05,-263.56 1032.6,-218.82 1041.32,-190.01"/>
<polygon fill="black" stroke="black" points="1044.75,-190.77 1044.29,-180.19 1038.05,-188.75 1044.75,-190.77"/>
</g>
<!-- [root] module.vpc.aws_subnet.rt_subnet_k8s_A (expand)&#45;&gt;[root] module.vpc.var.AWS_ZONE_A (expand) -->
<g id="edge30" class="edge">
<title>[root] module.vpc.aws_subnet.rt_subnet_k8s_A (expand)&#45;&gt;[root] module.vpc.var.AWS_ZONE_A (expand)</title>
<path fill="none" stroke="black" d="M873.87,-287.97C785.68,-276.64 670.66,-261.86 584.51,-250.8"/>
<polygon fill="black" stroke="black" points="584.78,-247.31 574.42,-249.5 583.89,-254.25 584.78,-247.31"/>
</g>
<!-- [root] module.vpc.aws_subnet.rt_subnet_k8s_B (expand)&#45;&gt;[root] module.vpc.aws_vpc.rt_vpc (expand) -->
<g id="edge31" class="edge">
<title>[root] module.vpc.aws_subnet.rt_subnet_k8s_B (expand)&#45;&gt;[root] module.vpc.aws_vpc.rt_vpc (expand)</title>
<path fill="none" stroke="black" d="M1825.86,-503.76C1840.51,-477.7 1865.5,-426.31 1865.5,-379 1865.5,-379 1865.5,-379 1865.5,-305 1865.5,-188.73 1732.97,-241.36 1619.5,-216 1464.74,-181.4 1281.47,-169.35 1165.34,-165.17"/>
<polygon fill="black" stroke="black" points="1165.13,-161.66 1155.01,-164.81 1164.89,-168.66 1165.13,-161.66"/>
</g>
<!-- [root] module.vpc.aws_subnet.rt_subnet_k8s_B (expand)&#45;&gt;[root] module.vpc.var.AWS_ZONE_B (expand) -->
<g id="edge32" class="edge">
<title>[root] module.vpc.aws_subnet.rt_subnet_k8s_B (expand)&#45;&gt;[root] module.vpc.var.AWS_ZONE_B (expand)</title>
<path fill="none" stroke="black" d="M1748.34,-503.97C1707.56,-493.63 1655.48,-480.41 1613.52,-469.77"/>
<polygon fill="black" stroke="black" points="1614.19,-466.33 1603.64,-467.27 1612.47,-473.12 1614.19,-466.33"/>
</g>
<!-- [root] module.vpc.aws_subnet.rt_subnet_public_A (expand) -->
<g id="node15" class="node">
<title>[root] module.vpc.aws_subnet.rt_subnet_public_A (expand)</title>
<polygon fill="none" stroke="black" points="797.5,-396 471.5,-396 471.5,-360 797.5,-360 797.5,-396"/>
<text text-anchor="middle" x="634.5" y="-374.3" font-family="Times,serif" font-size="14.00">module.vpc.aws_subnet.rt_subnet_public_A</text>
</g>
<!-- [root] module.vpc.aws_subnet.rt_subnet_public_A (expand)&#45;&gt;[root] module.vpc.aws_vpc.rt_vpc (expand) -->
<g id="edge33" class="edge">
<title>[root] module.vpc.aws_subnet.rt_subnet_public_A (expand)&#45;&gt;[root] module.vpc.aws_vpc.rt_vpc (expand)</title>
<path fill="none" stroke="black" d="M652.32,-359.82C693.44,-320.32 792.88,-225.66 811.5,-216 849.08,-196.5 893.61,-184.15 933.94,-176.34"/>
<polygon fill="black" stroke="black" points="934.63,-179.77 943.82,-174.5 933.35,-172.89 934.63,-179.77"/>
</g>
<!-- [root] module.vpc.aws_subnet.rt_subnet_public_A (expand)&#45;&gt;[root] module.vpc.var.AWS_ZONE_A (expand) -->
<g id="edge34" class="edge">
<title>[root] module.vpc.aws_subnet.rt_subnet_public_A (expand)&#45;&gt;[root] module.vpc.var.AWS_ZONE_A (expand)</title>
<path fill="none" stroke="black" d="M613.63,-359.87C582.77,-334.54 524.85,-287 490.07,-258.45"/>
<polygon fill="black" stroke="black" points="492.12,-255.61 482.17,-251.97 487.68,-261.02 492.12,-255.61"/>
</g>
<!-- [root] module.vpc.aws_subnet.rt_subnet_public_B (expand) -->
<g id="node16" class="node">
<title>[root] module.vpc.aws_subnet.rt_subnet_public_B (expand)</title>
<polygon fill="none" stroke="black" points="1643.5,-540 1317.5,-540 1317.5,-504 1643.5,-504 1643.5,-540"/>
<text text-anchor="middle" x="1480.5" y="-518.3" font-family="Times,serif" font-size="14.00">module.vpc.aws_subnet.rt_subnet_public_B</text>
</g>
<!-- [root] module.vpc.aws_subnet.rt_subnet_public_B (expand)&#45;&gt;[root] module.vpc.aws_vpc.rt_vpc (expand) -->
<g id="edge35" class="edge">
<title>[root] module.vpc.aws_subnet.rt_subnet_public_B (expand)&#45;&gt;[root] module.vpc.aws_vpc.rt_vpc (expand)</title>
<path fill="none" stroke="black" d="M1610.58,-503.96C1681.95,-493.44 1758.4,-479.74 1770.5,-468 1799.52,-439.83 1789.5,-419.45 1789.5,-379 1789.5,-379 1789.5,-379 1789.5,-305 1789.5,-242.21 1373.33,-193.74 1165.19,-173.42"/>
<polygon fill="black" stroke="black" points="1165.42,-169.93 1155.13,-172.44 1164.75,-176.89 1165.42,-169.93"/>
</g>
<!-- [root] module.vpc.aws_subnet.rt_subnet_public_B (expand)&#45;&gt;[root] module.vpc.var.AWS_ZONE_B (expand) -->
<g id="edge36" class="edge">
<title>[root] module.vpc.aws_subnet.rt_subnet_public_B (expand)&#45;&gt;[root] module.vpc.var.AWS_ZONE_B (expand)</title>
<path fill="none" stroke="black" d="M1495.08,-503.7C1502.16,-495.3 1510.78,-485.07 1518.55,-475.86"/>
<polygon fill="black" stroke="black" points="1521.31,-478.01 1525.08,-468.1 1515.96,-473.49 1521.31,-478.01"/>
</g>
<!-- [root] provider[&quot;registry.terraform.io/hashicorp/aws&quot;] -->
<g id="node18" class="node">
<title>[root] provider[&quot;registry.terraform.io/hashicorp/aws&quot;]</title>
<polygon fill="none" stroke="black" points="1064.5,-108 739.24,-90 1064.5,-72 1389.76,-90 1064.5,-108"/>
<text text-anchor="middle" x="1064.5" y="-86.3" font-family="Times,serif" font-size="14.00">provider[&quot;registry.terraform.io/hashicorp/aws&quot;]</text>
</g>
<!-- [root] module.vpc.aws_vpc.rt_vpc (expand)&#45;&gt;[root] provider[&quot;registry.terraform.io/hashicorp/aws&quot;] -->
<g id="edge38" class="edge">
<title>[root] module.vpc.aws_vpc.rt_vpc (expand)&#45;&gt;[root] provider[&quot;registry.terraform.io/hashicorp/aws&quot;]</title>
<path fill="none" stroke="black" d="M1053.21,-143.7C1054.86,-135.98 1056.85,-126.71 1058.69,-118.11"/>
<polygon fill="black" stroke="black" points="1062.16,-118.62 1060.83,-108.1 1055.32,-117.15 1062.16,-118.62"/>
</g>
<!-- [root] module.vpc.var.ENVIRONMENT (expand) -->
<g id="node24" class="node">
<title>[root] module.vpc.var.ENVIRONMENT (expand)</title>
<ellipse fill="none" stroke="black" cx="1639.5" cy="-90" rx="232.06" ry="18"/>
<text text-anchor="middle" x="1639.5" y="-86.3" font-family="Times,serif" font-size="14.00">[root] module.vpc.var.ENVIRONMENT (expand)</text>
</g>
<!-- [root] module.vpc.aws_vpc.rt_vpc (expand)&#45;&gt;[root] module.vpc.var.ENVIRONMENT (expand) -->
<g id="edge37" class="edge">
<title>[root] module.vpc.aws_vpc.rt_vpc (expand)&#45;&gt;[root] module.vpc.var.ENVIRONMENT (expand)</title>
<path fill="none" stroke="black" d="M1155.32,-148.45C1254.1,-136.72 1401.84,-119.2 1508.13,-106.59"/>
<polygon fill="black" stroke="black" points="1508.76,-110.04 1518.28,-105.38 1507.94,-103.08 1508.76,-110.04"/>
</g>
<!-- [root] meta.count&#45;boundary (EachMode fixup) -->
<g id="node19" class="node">
<title>[root] meta.count&#45;boundary (EachMode fixup)</title>
<ellipse fill="none" stroke="black" cx="1214.5" cy="-738" rx="222.86" ry="18"/>
<text text-anchor="middle" x="1214.5" y="-734.3" font-family="Times,serif" font-size="14.00">[root] meta.count&#45;boundary (EachMode fixup)</text>
</g>
<!-- [root] module.vpc (close) -->
<g id="node20" class="node">
<title>[root] module.vpc (close)</title>
<ellipse fill="none" stroke="black" cx="1261.5" cy="-666" rx="126.18" ry="18"/>
<text text-anchor="middle" x="1261.5" y="-662.3" font-family="Times,serif" font-size="14.00">[root] module.vpc (close)</text>
</g>
<!-- [root] meta.count&#45;boundary (EachMode fixup)&#45;&gt;[root] module.vpc (close) -->
<g id="edge1" class="edge">
<title>[root] meta.count&#45;boundary (EachMode fixup)&#45;&gt;[root] module.vpc (close)</title>
<path fill="none" stroke="black" d="M1226.12,-719.7C1231.64,-711.47 1238.35,-701.48 1244.43,-692.42"/>
<polygon fill="black" stroke="black" points="1247.35,-694.36 1250.02,-684.1 1241.54,-690.46 1247.35,-694.36"/>
</g>
<!-- [root] module.vpc (close)&#45;&gt;[root] module.vpc.aws_route_table.rt_nat_gw_rt (expand) -->
<g id="edge2" class="edge">
<title>[root] module.vpc (close)&#45;&gt;[root] module.vpc.aws_route_table.rt_nat_gw_rt (expand)</title>
<path fill="none" stroke="black" d="M1172.61,-653.22C1157.25,-651.35 1141.42,-649.53 1126.5,-648 929.79,-627.77 877.47,-630.22 677.51,-612.17"/>
<polygon fill="black" stroke="black" points="677.53,-608.66 667.26,-611.24 676.9,-615.63 677.53,-608.66"/>
</g>
<!-- [root] module.vpc (close)&#45;&gt;[root] module.vpc.aws_route_table_association.DB_A (expand) -->
<g id="edge3" class="edge">
<title>[root] module.vpc (close)&#45;&gt;[root] module.vpc.aws_route_table_association.DB_A (expand)</title>
<path fill="none" stroke="black" d="M1184.75,-651.67C1122.93,-640.93 1035.29,-625.71 966.41,-613.74"/>
<polygon fill="black" stroke="black" points="966.84,-610.27 956.38,-612 965.64,-617.16 966.84,-610.27"/>
</g>
<!-- [root] module.vpc (close)&#45;&gt;[root] module.vpc.aws_route_table_association.DB_B (expand) -->
<g id="edge4" class="edge">
<title>[root] module.vpc (close)&#45;&gt;[root] module.vpc.aws_route_table_association.DB_B (expand)</title>
<path fill="none" stroke="black" d="M1261.5,-647.7C1261.5,-639.98 1261.5,-630.71 1261.5,-622.11"/>
<polygon fill="black" stroke="black" points="1265,-622.1 1261.5,-612.1 1258,-622.1 1265,-622.1"/>
</g>
<!-- [root] module.vpc (close)&#45;&gt;[root] module.vpc.aws_route_table_association.k8s_B (expand) -->
<g id="edge5" class="edge">
<title>[root] module.vpc (close)&#45;&gt;[root] module.vpc.aws_route_table_association.k8s_B (expand)</title>
<path fill="none" stroke="black" d="M1348.83,-652.97C1427.71,-642.1 1545,-625.94 1635.7,-613.44"/>
<polygon fill="black" stroke="black" points="1636.36,-616.88 1645.79,-612.05 1635.4,-609.94 1636.36,-616.88"/>
</g>
<!-- [root] module.vpc (close)&#45;&gt;[root] module.vpc.aws_subnet.rt_subnet_bastion_A (expand) -->
<g id="edge6" class="edge">
<title>[root] module.vpc (close)&#45;&gt;[root] module.vpc.aws_subnet.rt_subnet_bastion_A (expand)</title>
<path fill="none" stroke="black" d="M1174.1,-652.97C1158.28,-651.08 1141.92,-649.32 1126.5,-648 1039.84,-640.56 424.88,-645.23 344.5,-612 308.35,-597.05 229.57,-516.94 190.47,-475.65"/>
<polygon fill="black" stroke="black" points="192.83,-473.05 183.42,-468.18 187.74,-477.85 192.83,-473.05"/>
</g>
<!-- [root] module.vpc (close)&#45;&gt;[root] module.vpc.aws_subnet.rt_subnet_public_A (expand) -->
<g id="edge7" class="edge">
<title>[root] module.vpc (close)&#45;&gt;[root] module.vpc.aws_subnet.rt_subnet_public_A (expand)</title>
<path fill="none" stroke="black" d="M1185.7,-651.58C1151.44,-643.41 1111.36,-630.82 1078.5,-612 1058.31,-600.44 1061.75,-585.47 1040.5,-576 949.69,-535.5 661.92,-613.08 594.5,-540 559.75,-502.34 592.63,-439.26 615.91,-404.28"/>
<polygon fill="black" stroke="black" points="618.8,-406.25 621.58,-396.03 613.03,-402.29 618.8,-406.25"/>
</g>
<!-- [root] module.vpc (close)&#45;&gt;[root] module.vpc.aws_subnet.rt_subnet_public_B (expand) -->
<g id="edge8" class="edge">
<title>[root] module.vpc (close)&#45;&gt;[root] module.vpc.aws_subnet.rt_subnet_public_B (expand)</title>
<path fill="none" stroke="black" d="M1353.43,-653.62C1404.73,-645.21 1461.47,-631.75 1477.5,-612 1491.31,-594.99 1490.75,-569.53 1487.49,-550.19"/>
<polygon fill="black" stroke="black" points="1490.88,-549.29 1485.48,-540.17 1484.02,-550.66 1490.88,-549.29"/>
</g>
<!-- [root] module.vpc.var.AWS_REGION (expand) -->
<g id="node21" class="node">
<title>[root] module.vpc.var.AWS_REGION (expand)</title>
<ellipse fill="none" stroke="black" cx="1988.5" cy="-162" rx="221.76" ry="18"/>
<text text-anchor="middle" x="1988.5" y="-158.3" font-family="Times,serif" font-size="14.00">[root] module.vpc.var.AWS_REGION (expand)</text>
</g>
<!-- [root] module.vpc (close)&#45;&gt;[root] module.vpc.var.AWS_REGION (expand) -->
<g id="edge9" class="edge">
<title>[root] module.vpc (close)&#45;&gt;[root] module.vpc.var.AWS_REGION (expand)</title>
<path fill="none" stroke="black" d="M1382.15,-660.61C1567.07,-653.15 1904.52,-636.41 1954.5,-612 2002.56,-588.53 2035.5,-576.48 2035.5,-523 2035.5,-523 2035.5,-523 2035.5,-305 2035.5,-262.96 2016.7,-217.29 2002.88,-189.41"/>
<polygon fill="black" stroke="black" points="2005.9,-187.63 1998.24,-180.32 1999.67,-190.82 2005.9,-187.63"/>
</g>
<!-- [root] module.vpc (expand) -->
<g id="node25" class="node">
<title>[root] module.vpc (expand)</title>
<ellipse fill="none" stroke="black" cx="1175.5" cy="-18" rx="135.68" ry="18"/>
<text text-anchor="middle" x="1175.5" y="-14.3" font-family="Times,serif" font-size="14.00">[root] module.vpc (expand)</text>
</g>
<!-- [root] module.vpc.var.AWS_REGION (expand)&#45;&gt;[root] module.vpc (expand) -->
<g id="edge39" class="edge">
<title>[root] module.vpc.var.AWS_REGION (expand)&#45;&gt;[root] module.vpc (expand)</title>
<path fill="none" stroke="black" d="M1974.1,-143.94C1955.11,-122.81 1919.5,-87.67 1880.5,-72 1782.47,-32.6 1497.45,-22.22 1321.28,-19.65"/>
<polygon fill="black" stroke="black" points="1321.19,-16.15 1311.15,-19.51 1321.1,-23.15 1321.19,-16.15"/>
</g>
<!-- [root] module.vpc.var.AWS_ZONE_A (expand)&#45;&gt;[root] module.vpc (expand) -->
<g id="edge40" class="edge">
<title>[root] module.vpc.var.AWS_ZONE_A (expand)&#45;&gt;[root] module.vpc (expand)</title>
<path fill="none" stroke="black" d="M479.58,-215.91C516.89,-181.81 606.57,-105.66 697.5,-72 758.75,-49.33 923.64,-34.57 1042.64,-26.53"/>
<polygon fill="black" stroke="black" points="1043.17,-30 1052.92,-25.84 1042.71,-23.01 1043.17,-30"/>
</g>
<!-- [root] module.vpc.var.AWS_ZONE_B (expand)&#45;&gt;[root] module.vpc (expand) -->
<g id="edge41" class="edge">
<title>[root] module.vpc.var.AWS_ZONE_B (expand)&#45;&gt;[root] module.vpc (expand)</title>
<path fill="none" stroke="black" d="M1337.98,-442.46C1158.99,-435.08 920.03,-420.74 882.5,-396 761.66,-316.34 765.3,-248.49 730.5,-108 726.65,-92.47 719.88,-83.96 730.5,-72 751.05,-48.85 918.04,-34 1041.45,-26.08"/>
<polygon fill="black" stroke="black" points="1041.99,-29.55 1051.75,-25.43 1041.54,-22.57 1041.99,-29.55"/>
</g>
<!-- [root] module.vpc.var.ENVIRONMENT (expand)&#45;&gt;[root] module.vpc (expand) -->
<g id="edge42" class="edge">
<title>[root] module.vpc.var.ENVIRONMENT (expand)&#45;&gt;[root] module.vpc (expand)</title>
<path fill="none" stroke="black" d="M1538.53,-73.77C1459.31,-61.82 1349.76,-45.29 1271.77,-33.52"/>
<polygon fill="black" stroke="black" points="1271.87,-30 1261.46,-31.97 1270.83,-36.92 1271.87,-30"/>
</g>
<!-- [root] provider[&quot;registry.terraform.io/hashicorp/aws&quot;] (close) -->
<g id="node26" class="node">
<title>[root] provider[&quot;registry.terraform.io/hashicorp/aws&quot;] (close)</title>
<ellipse fill="none" stroke="black" cx="825.5" cy="-666" rx="291.65" ry="18"/>
<text text-anchor="middle" x="825.5" y="-662.3" font-family="Times,serif" font-size="14.00">[root] provider[&quot;registry.terraform.io/hashicorp/aws&quot;] (close)</text>
</g>
<!-- [root] provider[&quot;registry.terraform.io/hashicorp/aws&quot;] (close)&#45;&gt;[root] module.vpc.aws_route_table.rt_nat_gw_rt (expand) -->
<g id="edge43" class="edge">
<title>[root] provider[&quot;registry.terraform.io/hashicorp/aws&quot;] (close)&#45;&gt;[root] module.vpc.aws_route_table.rt_nat_gw_rt (expand)</title>
<path fill="none" stroke="black" d="M751.25,-648.5C705.05,-638.23 645.44,-624.99 597.09,-614.24"/>
<polygon fill="black" stroke="black" points="597.79,-610.81 587.27,-612.06 596.27,-617.65 597.79,-610.81"/>
</g>
<!-- [root] provider[&quot;registry.terraform.io/hashicorp/aws&quot;] (close)&#45;&gt;[root] module.vpc.aws_route_table_association.DB_A (expand) -->
<g id="edge44" class="edge">
<title>[root] provider[&quot;registry.terraform.io/hashicorp/aws&quot;] (close)&#45;&gt;[root] module.vpc.aws_route_table_association.DB_A (expand)</title>
<path fill="none" stroke="black" d="M833.66,-647.7C837.41,-639.73 841.95,-630.1 846.12,-621.26"/>
<polygon fill="black" stroke="black" points="849.34,-622.64 850.44,-612.1 843.01,-619.66 849.34,-622.64"/>
</g>
<!-- [root] provider[&quot;registry.terraform.io/hashicorp/aws&quot;] (close)&#45;&gt;[root] module.vpc.aws_route_table_association.DB_B (expand) -->
<g id="edge45" class="edge">
<title>[root] provider[&quot;registry.terraform.io/hashicorp/aws&quot;] (close)&#45;&gt;[root] module.vpc.aws_route_table_association.DB_B (expand)</title>
<path fill="none" stroke="black" d="M924.98,-649.03C990.62,-638.49 1076.85,-624.65 1145.59,-613.61"/>
<polygon fill="black" stroke="black" points="1146.28,-617.04 1155.6,-612 1145.17,-610.13 1146.28,-617.04"/>
</g>
<!-- [root] provider[&quot;registry.terraform.io/hashicorp/aws&quot;] (close)&#45;&gt;[root] module.vpc.aws_route_table_association.k8s_B (expand) -->
<g id="edge46" class="edge">
<title>[root] provider[&quot;registry.terraform.io/hashicorp/aws&quot;] (close)&#45;&gt;[root] module.vpc.aws_route_table_association.k8s_B (expand)</title>
<path fill="none" stroke="black" d="M1004.17,-651.75C1169.96,-639.46 1415.74,-621.23 1583.76,-608.77"/>
<polygon fill="black" stroke="black" points="1584.24,-612.25 1593.96,-608.02 1583.73,-605.27 1584.24,-612.25"/>
</g>
<!-- [root] provider[&quot;registry.terraform.io/hashicorp/aws&quot;] (close)&#45;&gt;[root] module.vpc.aws_subnet.rt_subnet_bastion_A (expand) -->
<g id="edge47" class="edge">
<title>[root] provider[&quot;registry.terraform.io/hashicorp/aws&quot;] (close)&#45;&gt;[root] module.vpc.aws_subnet.rt_subnet_bastion_A (expand)</title>
<path fill="none" stroke="black" d="M548.16,-660.33C435.36,-653.95 320.56,-640.35 273.5,-612 222.27,-581.14 190.91,-514.92 176.65,-477.73"/>
<polygon fill="black" stroke="black" points="179.82,-476.24 173.07,-468.07 173.26,-478.66 179.82,-476.24"/>
</g>
<!-- [root] provider[&quot;registry.terraform.io/hashicorp/aws&quot;] (close)&#45;&gt;[root] module.vpc.aws_subnet.rt_subnet_public_A (expand) -->
<g id="edge48" class="edge">
<title>[root] provider[&quot;registry.terraform.io/hashicorp/aws&quot;] (close)&#45;&gt;[root] module.vpc.aws_subnet.rt_subnet_public_A (expand)</title>
<path fill="none" stroke="black" d="M606.58,-654.09C488.38,-645.89 362.86,-632.49 344.5,-612 262.72,-520.71 461.55,-436.73 569.9,-399.38"/>
<polygon fill="black" stroke="black" points="571.11,-402.67 579.45,-396.13 568.85,-396.04 571.11,-402.67"/>
</g>
<!-- [root] provider[&quot;registry.terraform.io/hashicorp/aws&quot;] (close)&#45;&gt;[root] module.vpc.aws_subnet.rt_subnet_public_B (expand) -->
<g id="edge49" class="edge">
<title>[root] provider[&quot;registry.terraform.io/hashicorp/aws&quot;] (close)&#45;&gt;[root] module.vpc.aws_subnet.rt_subnet_public_B (expand)</title>
<path fill="none" stroke="black" d="M1025.65,-652.88C1199.97,-641.55 1427.52,-624.53 1444.5,-612 1464.03,-597.59 1472.99,-570.77 1477.08,-550.33"/>
<polygon fill="black" stroke="black" points="1480.56,-550.77 1478.81,-540.32 1473.66,-549.58 1480.56,-550.77"/>
</g>
<!-- [root] root -->
<g id="node27" class="node">
<title>[root] root</title>
<ellipse fill="none" stroke="black" cx="1042.5" cy="-810" rx="58.49" ry="18"/>
<text text-anchor="middle" x="1042.5" y="-806.3" font-family="Times,serif" font-size="14.00">[root] root</text>
</g>
<!-- [root] root&#45;&gt;[root] meta.count&#45;boundary (EachMode fixup) -->
<g id="edge50" class="edge">
<title>[root] root&#45;&gt;[root] meta.count&#45;boundary (EachMode fixup)</title>
<path fill="none" stroke="black" d="M1076.48,-795.17C1101.46,-785 1135.82,-771.02 1164.01,-759.55"/>
<polygon fill="black" stroke="black" points="1165.37,-762.78 1173.31,-755.76 1162.73,-756.29 1165.37,-762.78"/>
</g>
<!-- [root] root&#45;&gt;[root] provider[&quot;registry.terraform.io/hashicorp/aws&quot;] (close) -->
<g id="edge51" class="edge">
<title>[root] root&#45;&gt;[root] provider[&quot;registry.terraform.io/hashicorp/aws&quot;] (close)</title>
<path fill="none" stroke="black" d="M1018.86,-793.53C980.45,-768.4 904.31,-718.57 859.9,-689.51"/>
<polygon fill="black" stroke="black" points="861.74,-686.53 851.46,-683.99 857.91,-692.39 861.74,-686.53"/>
</g>
</g>
</svg>
