<?xml version="1.0" encoding="UTF-8" standalone="no"?>
<!DOCTYPE svg PUBLIC "-//W3C//DTD SVG 1.1//EN"
 "http://www.w3.org/Graphics/SVG/1.1/DTD/svg11.dtd">
<!-- Generated by graphviz version 2.43.0 (0)
 -->
<!-- Title: %3 Pages: 1 -->
<svg width="2284pt" height="404pt"
 viewBox="0.00 0.00 2284.00 404.00" xmlns="http://www.w3.org/2000/svg" xmlns:xlink="http://www.w3.org/1999/xlink">
<g id="graph0" class="graph" transform="scale(1 1) rotate(0) translate(4 400)">
<title>%3</title>
<polygon fill="white" stroke="transparent" points="-4,4 -4,-400 2280,-400 2280,4 -4,4"/>
<!-- [root] aws_internet_gateway.igw (expand) -->
<g id="node1" class="node">
<title>[root] aws_internet_gateway.igw (expand)</title>
<polygon fill="none" stroke="black" points="1395.5,-252 1192.5,-252 1192.5,-216 1395.5,-216 1395.5,-252"/>
<text text-anchor="middle" x="1294" y="-230.3" font-family="Times,serif" font-size="14.00">aws_internet_gateway.igw</text>
</g>
<!-- [root] aws_vpc.research_vpc (expand) -->
<g id="node9" class="node">
<title>[root] aws_vpc.research_vpc (expand)</title>
<polygon fill="none" stroke="black" points="1255,-180 1081,-180 1081,-144 1255,-144 1255,-180"/>
<text text-anchor="middle" x="1168" y="-158.3" font-family="Times,serif" font-size="14.00">aws_vpc.research_vpc</text>
</g>
<!-- [root] aws_internet_gateway.igw (expand)&#45;&gt;[root] aws_vpc.research_vpc (expand) -->
<g id="edge1" class="edge">
<title>[root] aws_internet_gateway.igw (expand)&#45;&gt;[root] aws_vpc.research_vpc (expand)</title>
<path fill="none" stroke="black" d="M1263.18,-215.88C1246.55,-206.64 1225.84,-195.13 1207.98,-185.21"/>
<polygon fill="black" stroke="black" points="1209.38,-181.99 1198.94,-180.19 1205.98,-188.11 1209.38,-181.99"/>
</g>
<!-- [root] aws_subnet.research_subnet_bastion_A (expand) -->
<g id="node2" class="node">
<title>[root] aws_subnet.research_subnet_bastion_A (expand)</title>
<polygon fill="none" stroke="black" points="893,-252 595,-252 595,-216 893,-216 893,-252"/>
<text text-anchor="middle" x="744" y="-230.3" font-family="Times,serif" font-size="14.00">aws_subnet.research_subnet_bastion_A</text>
</g>
<!-- [root] aws_subnet.research_subnet_bastion_A (expand)&#45;&gt;[root] aws_vpc.research_vpc (expand) -->
<g id="edge2" class="edge">
<title>[root] aws_subnet.research_subnet_bastion_A (expand)&#45;&gt;[root] aws_vpc.research_vpc (expand)</title>
<path fill="none" stroke="black" d="M847.18,-215.97C915.26,-204.73 1003.89,-190.09 1070.73,-179.06"/>
<polygon fill="black" stroke="black" points="1071.55,-182.47 1080.85,-177.39 1070.41,-175.56 1071.55,-182.47"/>
</g>
<!-- [root] var.AWS_ZONE_A -->
<g id="node12" class="node">
<title>[root] var.AWS_ZONE_A</title>
<polygon fill="none" stroke="black" points="654.5,-180 517.5,-180 517.5,-144 660.5,-144 660.5,-174 654.5,-180"/>
<polyline fill="none" stroke="black" points="654.5,-180 654.5,-174 "/>
<polyline fill="none" stroke="black" points="660.5,-174 654.5,-174 "/>
<text text-anchor="middle" x="589" y="-158.3" font-family="Times,serif" font-size="14.00">var.AWS_ZONE_A</text>
</g>
<!-- [root] aws_subnet.research_subnet_bastion_A (expand)&#45;&gt;[root] var.AWS_ZONE_A -->
<g id="edge3" class="edge">
<title>[root] aws_subnet.research_subnet_bastion_A (expand)&#45;&gt;[root] var.AWS_ZONE_A</title>
<path fill="none" stroke="black" d="M706.08,-215.88C684.99,-206.35 658.54,-194.41 636.13,-184.28"/>
<polygon fill="black" stroke="black" points="637.35,-180.99 626.79,-180.07 634.47,-187.37 637.35,-180.99"/>
</g>
<!-- [root] aws_subnet.research_subnet_db_A (expand) -->
<g id="node3" class="node">
<title>[root] aws_subnet.research_subnet_db_A (expand)</title>
<polygon fill="none" stroke="black" points="1174.5,-252 911.5,-252 911.5,-216 1174.5,-216 1174.5,-252"/>
<text text-anchor="middle" x="1043" y="-230.3" font-family="Times,serif" font-size="14.00">aws_subnet.research_subnet_db_A</text>
</g>
<!-- [root] aws_subnet.research_subnet_db_A (expand)&#45;&gt;[root] aws_vpc.research_vpc (expand) -->
<g id="edge4" class="edge">
<title>[root] aws_subnet.research_subnet_db_A (expand)&#45;&gt;[root] aws_vpc.research_vpc (expand)</title>
<path fill="none" stroke="black" d="M1073.58,-215.88C1090.07,-206.64 1110.62,-195.13 1128.34,-185.21"/>
<polygon fill="black" stroke="black" points="1130.29,-188.13 1137.3,-180.19 1126.87,-182.02 1130.29,-188.13"/>
</g>
<!-- [root] aws_subnet.research_subnet_db_A (expand)&#45;&gt;[root] var.AWS_ZONE_A -->
<g id="edge5" class="edge">
<title>[root] aws_subnet.research_subnet_db_A (expand)&#45;&gt;[root] var.AWS_ZONE_A</title>
<path fill="none" stroke="black" d="M932.52,-215.97C851.68,-203.5 743.78,-186.86 670.64,-175.59"/>
<polygon fill="black" stroke="black" points="670.97,-172.1 660.55,-174.03 669.9,-179.02 670.97,-172.1"/>
</g>
<!-- [root] aws_subnet.research_subnet_db_B (expand) -->
<g id="node4" class="node">
<title>[root] aws_subnet.research_subnet_db_B (expand)</title>
<polygon fill="none" stroke="black" points="1678,-252 1414,-252 1414,-216 1678,-216 1678,-252"/>
<text text-anchor="middle" x="1546" y="-230.3" font-family="Times,serif" font-size="14.00">aws_subnet.research_subnet_db_B</text>
</g>
<!-- [root] aws_subnet.research_subnet_db_B (expand)&#45;&gt;[root] aws_vpc.research_vpc (expand) -->
<g id="edge6" class="edge">
<title>[root] aws_subnet.research_subnet_db_B (expand)&#45;&gt;[root] aws_vpc.research_vpc (expand)</title>
<path fill="none" stroke="black" d="M1454.01,-215.97C1396.79,-205.37 1323.29,-191.76 1265.13,-180.99"/>
<polygon fill="black" stroke="black" points="1265.66,-177.53 1255.19,-179.15 1264.39,-184.41 1265.66,-177.53"/>
</g>
<!-- [root] var.AWS_ZONE_B -->
<g id="node13" class="node">
<title>[root] var.AWS_ZONE_B</title>
<polygon fill="none" stroke="black" points="1898,-180 1760,-180 1760,-144 1904,-144 1904,-174 1898,-180"/>
<polyline fill="none" stroke="black" points="1898,-180 1898,-174 "/>
<polyline fill="none" stroke="black" points="1904,-174 1898,-174 "/>
<text text-anchor="middle" x="1832" y="-158.3" font-family="Times,serif" font-size="14.00">var.AWS_ZONE_B</text>
</g>
<!-- [root] aws_subnet.research_subnet_db_B (expand)&#45;&gt;[root] var.AWS_ZONE_B -->
<g id="edge7" class="edge">
<title>[root] aws_subnet.research_subnet_db_B (expand)&#45;&gt;[root] var.AWS_ZONE_B</title>
<path fill="none" stroke="black" d="M1615.6,-215.97C1656.86,-205.87 1709.31,-193.03 1752.24,-182.52"/>
<polygon fill="black" stroke="black" points="1753.21,-185.89 1762.09,-180.11 1751.54,-179.09 1753.21,-185.89"/>
</g>
<!-- [root] aws_subnet.research_subnet_k8s_A (expand) -->
<g id="node5" class="node">
<title>[root] aws_subnet.research_subnet_k8s_A (expand)</title>
<polygon fill="none" stroke="black" points="270,-252 0,-252 0,-216 270,-216 270,-252"/>
<text text-anchor="middle" x="135" y="-230.3" font-family="Times,serif" font-size="14.00">aws_subnet.research_subnet_k8s_A</text>
</g>
<!-- [root] aws_subnet.research_subnet_k8s_A (expand)&#45;&gt;[root] aws_vpc.research_vpc (expand) -->
<g id="edge8" class="edge">
<title>[root] aws_subnet.research_subnet_k8s_A (expand)&#45;&gt;[root] aws_vpc.research_vpc (expand)</title>
<path fill="none" stroke="black" d="M270.26,-216.8C273.2,-216.52 276.12,-216.26 279,-216 566.37,-190.49 907.12,-174.01 1070.76,-166.95"/>
<polygon fill="black" stroke="black" points="1070.97,-170.44 1080.81,-166.52 1070.67,-163.45 1070.97,-170.44"/>
</g>
<!-- [root] aws_subnet.research_subnet_k8s_A (expand)&#45;&gt;[root] var.AWS_ZONE_A -->
<g id="edge9" class="edge">
<title>[root] aws_subnet.research_subnet_k8s_A (expand)&#45;&gt;[root] var.AWS_ZONE_A</title>
<path fill="none" stroke="black" d="M245.48,-215.97C326.32,-203.5 434.22,-186.86 507.36,-175.59"/>
<polygon fill="black" stroke="black" points="508.1,-179.02 517.45,-174.03 507.03,-172.1 508.1,-179.02"/>
</g>
<!-- [root] aws_subnet.research_subnet_k8s_B (expand) -->
<g id="node6" class="node">
<title>[root] aws_subnet.research_subnet_k8s_B (expand)</title>
<polygon fill="none" stroke="black" points="1967.5,-252 1696.5,-252 1696.5,-216 1967.5,-216 1967.5,-252"/>
<text text-anchor="middle" x="1832" y="-230.3" font-family="Times,serif" font-size="14.00">aws_subnet.research_subnet_k8s_B</text>
</g>
<!-- [root] aws_subnet.research_subnet_k8s_B (expand)&#45;&gt;[root] aws_vpc.research_vpc (expand) -->
<g id="edge10" class="edge">
<title>[root] aws_subnet.research_subnet_k8s_B (expand)&#45;&gt;[root] aws_vpc.research_vpc (expand)</title>
<path fill="none" stroke="black" d="M1696.17,-217.01C1693.08,-216.67 1690.02,-216.33 1687,-216 1540.18,-199.9 1369.82,-182.8 1265.48,-172.52"/>
<polygon fill="black" stroke="black" points="1265.57,-169.01 1255.28,-171.51 1264.89,-175.97 1265.57,-169.01"/>
</g>
<!-- [root] aws_subnet.research_subnet_k8s_B (expand)&#45;&gt;[root] var.AWS_ZONE_B -->
<g id="edge11" class="edge">
<title>[root] aws_subnet.research_subnet_k8s_B (expand)&#45;&gt;[root] var.AWS_ZONE_B</title>
<path fill="none" stroke="black" d="M1832,-215.7C1832,-207.98 1832,-198.71 1832,-190.11"/>
<polygon fill="black" stroke="black" points="1835.5,-190.1 1832,-180.1 1828.5,-190.1 1835.5,-190.1"/>
</g>
<!-- [root] aws_subnet.research_subnet_public_A (expand) -->
<g id="node7" class="node">
<title>[root] aws_subnet.research_subnet_public_A (expand)</title>
<polygon fill="none" stroke="black" points="577.5,-252 288.5,-252 288.5,-216 577.5,-216 577.5,-252"/>
<text text-anchor="middle" x="433" y="-230.3" font-family="Times,serif" font-size="14.00">aws_subnet.research_subnet_public_A</text>
</g>
<!-- [root] aws_subnet.research_subnet_public_A (expand)&#45;&gt;[root] aws_vpc.research_vpc (expand) -->
<g id="edge12" class="edge">
<title>[root] aws_subnet.research_subnet_public_A (expand)&#45;&gt;[root] aws_vpc.research_vpc (expand)</title>
<path fill="none" stroke="black" d="M577.55,-216.86C580.39,-216.57 583.21,-216.28 586,-216 756.25,-198.79 954.79,-181.25 1070.44,-171.29"/>
<polygon fill="black" stroke="black" points="1071.02,-174.75 1080.69,-170.41 1070.42,-167.78 1071.02,-174.75"/>
</g>
<!-- [root] aws_subnet.research_subnet_public_A (expand)&#45;&gt;[root] var.AWS_ZONE_A -->
<g id="edge13" class="edge">
<title>[root] aws_subnet.research_subnet_public_A (expand)&#45;&gt;[root] var.AWS_ZONE_A</title>
<path fill="none" stroke="black" d="M471.16,-215.88C492.39,-206.35 519.01,-194.41 541.57,-184.28"/>
<polygon fill="black" stroke="black" points="543.27,-187.36 550.96,-180.07 540.41,-180.97 543.27,-187.36"/>
</g>
<!-- [root] aws_subnet.research_subnet_public_B (expand) -->
<g id="node8" class="node">
<title>[root] aws_subnet.research_subnet_public_B (expand)</title>
<polygon fill="none" stroke="black" points="2276,-252 1986,-252 1986,-216 2276,-216 2276,-252"/>
<text text-anchor="middle" x="2131" y="-230.3" font-family="Times,serif" font-size="14.00">aws_subnet.research_subnet_public_B</text>
</g>
<!-- [root] aws_subnet.research_subnet_public_B (expand)&#45;&gt;[root] aws_vpc.research_vpc (expand) -->
<g id="edge14" class="edge">
<title>[root] aws_subnet.research_subnet_public_B (expand)&#45;&gt;[root] aws_vpc.research_vpc (expand)</title>
<path fill="none" stroke="black" d="M1985.93,-216.8C1982.93,-216.53 1979.95,-216.26 1977,-216 1720.52,-193.45 1417.52,-176.07 1265.43,-167.98"/>
<polygon fill="black" stroke="black" points="1265.36,-164.47 1255.19,-167.44 1264.99,-171.46 1265.36,-164.47"/>
</g>
<!-- [root] aws_subnet.research_subnet_public_B (expand)&#45;&gt;[root] var.AWS_ZONE_B -->
<g id="edge15" class="edge">
<title>[root] aws_subnet.research_subnet_public_B (expand)&#45;&gt;[root] var.AWS_ZONE_B</title>
<path fill="none" stroke="black" d="M2058.24,-215.97C2014.6,-205.75 1958.98,-192.73 1913.82,-182.15"/>
<polygon fill="black" stroke="black" points="1914.59,-178.74 1904.05,-179.87 1912.99,-185.56 1914.59,-178.74"/>
</g>
<!-- [root] provider[&quot;registry.terraform.io/hashicorp/aws&quot;] -->
<g id="node10" class="node">
<title>[root] provider[&quot;registry.terraform.io/hashicorp/aws&quot;]</title>
<polygon fill="none" stroke="black" points="957,-108 631.74,-90 957,-72 1282.26,-90 957,-108"/>
<text text-anchor="middle" x="957" y="-86.3" font-family="Times,serif" font-size="14.00">provider[&quot;registry.terraform.io/hashicorp/aws&quot;]</text>
</g>
<!-- [root] aws_vpc.research_vpc (expand)&#45;&gt;[root] provider[&quot;registry.terraform.io/hashicorp/aws&quot;] -->
<g id="edge16" class="edge">
<title>[root] aws_vpc.research_vpc (expand)&#45;&gt;[root] provider[&quot;registry.terraform.io/hashicorp/aws&quot;]</title>
<path fill="none" stroke="black" d="M1116.65,-143.97C1084.59,-133.33 1043.38,-119.66 1010.86,-108.87"/>
<polygon fill="black" stroke="black" points="1011.66,-105.45 1001.06,-105.62 1009.45,-112.09 1011.66,-105.45"/>
</g>
<!-- [root] var.ENVIRONMENT -->
<g id="node14" class="node">
<title>[root] var.ENVIRONMENT</title>
<polygon fill="none" stroke="black" points="1454,-108 1300,-108 1300,-72 1460,-72 1460,-102 1454,-108"/>
<polyline fill="none" stroke="black" points="1454,-108 1454,-102 "/>
<polyline fill="none" stroke="black" points="1460,-102 1454,-102 "/>
<text text-anchor="middle" x="1380" y="-86.3" font-family="Times,serif" font-size="14.00">var.ENVIRONMENT</text>
</g>
<!-- [root] aws_vpc.research_vpc (expand)&#45;&gt;[root] var.ENVIRONMENT -->
<g id="edge17" class="edge">
<title>[root] aws_vpc.research_vpc (expand)&#45;&gt;[root] var.ENVIRONMENT</title>
<path fill="none" stroke="black" d="M1219.59,-143.97C1249.47,-134.1 1287.26,-121.62 1318.66,-111.25"/>
<polygon fill="black" stroke="black" points="1319.78,-114.57 1328.18,-108.11 1317.59,-107.92 1319.78,-114.57"/>
</g>
<!-- [root] var.AWS_REGION -->
<g id="node11" class="node">
<title>[root] var.AWS_REGION</title>
<polygon fill="none" stroke="black" points="1023,-36 885,-36 885,0 1029,0 1029,-30 1023,-36"/>
<polyline fill="none" stroke="black" points="1023,-36 1023,-30 "/>
<polyline fill="none" stroke="black" points="1029,-30 1023,-30 "/>
<text text-anchor="middle" x="957" y="-14.3" font-family="Times,serif" font-size="14.00">var.AWS_REGION</text>
</g>
<!-- [root] provider[&quot;registry.terraform.io/hashicorp/aws&quot;]&#45;&gt;[root] var.AWS_REGION -->
<g id="edge34" class="edge">
<title>[root] provider[&quot;registry.terraform.io/hashicorp/aws&quot;]&#45;&gt;[root] var.AWS_REGION</title>
<path fill="none" stroke="black" d="M957,-71.7C957,-63.98 957,-54.71 957,-46.11"/>
<polygon fill="black" stroke="black" points="960.5,-46.1 957,-36.1 953.5,-46.1 960.5,-46.1"/>
</g>
<!-- [root] meta.count&#45;boundary (EachMode fixup) -->
<g id="node15" class="node">
<title>[root] meta.count&#45;boundary (EachMode fixup)</title>
<ellipse fill="none" stroke="black" cx="887" cy="-306" rx="222.86" ry="18"/>
<text text-anchor="middle" x="887" y="-302.3" font-family="Times,serif" font-size="14.00">[root] meta.count&#45;boundary (EachMode fixup)</text>
</g>
<!-- [root] meta.count&#45;boundary (EachMode fixup)&#45;&gt;[root] aws_internet_gateway.igw (expand) -->
<g id="edge18" class="edge">
<title>[root] meta.count&#45;boundary (EachMode fixup)&#45;&gt;[root] aws_internet_gateway.igw (expand)</title>
<path fill="none" stroke="black" d="M977.07,-289.51C1038.43,-278.96 1120,-264.93 1185.02,-253.74"/>
<polygon fill="black" stroke="black" points="1185.64,-257.19 1194.9,-252.04 1184.45,-250.29 1185.64,-257.19"/>
</g>
<!-- [root] meta.count&#45;boundary (EachMode fixup)&#45;&gt;[root] aws_subnet.research_subnet_bastion_A (expand) -->
<g id="edge19" class="edge">
<title>[root] meta.count&#45;boundary (EachMode fixup)&#45;&gt;[root] aws_subnet.research_subnet_bastion_A (expand)</title>
<path fill="none" stroke="black" d="M852.38,-288.05C833.03,-278.58 808.71,-266.68 788.02,-256.55"/>
<polygon fill="black" stroke="black" points="789.31,-253.28 778.79,-252.03 786.24,-259.57 789.31,-253.28"/>
</g>
<!-- [root] meta.count&#45;boundary (EachMode fixup)&#45;&gt;[root] aws_subnet.research_subnet_db_A (expand) -->
<g id="edge20" class="edge">
<title>[root] meta.count&#45;boundary (EachMode fixup)&#45;&gt;[root] aws_subnet.research_subnet_db_A (expand)</title>
<path fill="none" stroke="black" d="M924.37,-288.23C945.76,-278.63 972.8,-266.5 995.67,-256.24"/>
<polygon fill="black" stroke="black" points="997.16,-259.4 1004.86,-252.12 994.3,-253.02 997.16,-259.4"/>
</g>
<!-- [root] meta.count&#45;boundary (EachMode fixup)&#45;&gt;[root] aws_subnet.research_subnet_db_B (expand) -->
<g id="edge21" class="edge">
<title>[root] meta.count&#45;boundary (EachMode fixup)&#45;&gt;[root] aws_subnet.research_subnet_db_B (expand)</title>
<path fill="none" stroke="black" d="M1022.86,-291.71C1124.62,-281.6 1267.57,-267.09 1403.54,-252.04"/>
<polygon fill="black" stroke="black" points="1404.18,-255.49 1413.73,-250.91 1403.41,-248.53 1404.18,-255.49"/>
</g>
<!-- [root] meta.count&#45;boundary (EachMode fixup)&#45;&gt;[root] aws_subnet.research_subnet_k8s_A (expand) -->
<g id="edge22" class="edge">
<title>[root] meta.count&#45;boundary (EachMode fixup)&#45;&gt;[root] aws_subnet.research_subnet_k8s_A (expand)</title>
<path fill="none" stroke="black" d="M733.52,-292.93C613.03,-283.14 440.78,-268.47 280.34,-252.12"/>
<polygon fill="black" stroke="black" points="280.58,-248.63 270.27,-251.09 279.87,-255.59 280.58,-248.63"/>
</g>
<!-- [root] meta.count&#45;boundary (EachMode fixup)&#45;&gt;[root] aws_subnet.research_subnet_k8s_B (expand) -->
<g id="edge23" class="edge">
<title>[root] meta.count&#45;boundary (EachMode fixup)&#45;&gt;[root] aws_subnet.research_subnet_k8s_B (expand)</title>
<path fill="none" stroke="black" d="M1044.54,-293.25C1069.45,-291.45 1094.93,-289.64 1119,-288 1368.04,-270.98 1433.36,-274.63 1685.96,-252.07"/>
<polygon fill="black" stroke="black" points="1686.53,-255.53 1696.18,-251.15 1685.91,-248.56 1686.53,-255.53"/>
</g>
<!-- [root] meta.count&#45;boundary (EachMode fixup)&#45;&gt;[root] aws_subnet.research_subnet_public_A (expand) -->
<g id="edge24" class="edge">
<title>[root] meta.count&#45;boundary (EachMode fixup)&#45;&gt;[root] aws_subnet.research_subnet_public_A (expand)</title>
<path fill="none" stroke="black" d="M788.49,-289.81C719.49,-279.17 626.89,-264.89 553.49,-253.58"/>
<polygon fill="black" stroke="black" points="553.68,-250.07 543.27,-252 552.62,-256.98 553.68,-250.07"/>
</g>
<!-- [root] meta.count&#45;boundary (EachMode fixup)&#45;&gt;[root] aws_subnet.research_subnet_public_B (expand) -->
<g id="edge25" class="edge">
<title>[root] meta.count&#45;boundary (EachMode fixup)&#45;&gt;[root] aws_subnet.research_subnet_public_B (expand)</title>
<path fill="none" stroke="black" d="M1041.39,-293.01C1067.29,-291.19 1093.9,-289.45 1119,-288 1496.69,-266.24 1594.71,-280.7 1975.73,-252.06"/>
<polygon fill="black" stroke="black" points="1976.23,-255.54 1985.94,-251.29 1975.7,-248.56 1976.23,-255.54"/>
</g>
<!-- [root] provider[&quot;registry.terraform.io/hashicorp/aws&quot;] (close) -->
<g id="node16" class="node">
<title>[root] provider[&quot;registry.terraform.io/hashicorp/aws&quot;] (close)</title>
<ellipse fill="none" stroke="black" cx="1420" cy="-306" rx="291.65" ry="18"/>
<text text-anchor="middle" x="1420" y="-302.3" font-family="Times,serif" font-size="14.00">[root] provider[&quot;registry.terraform.io/hashicorp/aws&quot;] (close)</text>
</g>
<!-- [root] provider[&quot;registry.terraform.io/hashicorp/aws&quot;] (close)&#45;&gt;[root] aws_internet_gateway.igw (expand) -->
<g id="edge26" class="edge">
<title>[root] provider[&quot;registry.terraform.io/hashicorp/aws&quot;] (close)&#45;&gt;[root] aws_internet_gateway.igw (expand)</title>
<path fill="none" stroke="black" d="M1389.5,-288.05C1372.75,-278.75 1351.79,-267.11 1333.77,-257.1"/>
<polygon fill="black" stroke="black" points="1335.1,-253.83 1324.66,-252.03 1331.7,-259.95 1335.1,-253.83"/>
</g>
<!-- [root] provider[&quot;registry.terraform.io/hashicorp/aws&quot;] (close)&#45;&gt;[root] aws_subnet.research_subnet_bastion_A (expand) -->
<g id="edge27" class="edge">
<title>[root] provider[&quot;registry.terraform.io/hashicorp/aws&quot;] (close)&#45;&gt;[root] aws_subnet.research_subnet_bastion_A (expand)</title>
<path fill="none" stroke="black" d="M1274.85,-290.35C1173.62,-280.09 1035.11,-265.95 903.54,-252.16"/>
<polygon fill="black" stroke="black" points="903.59,-248.64 893.28,-251.08 902.86,-255.61 903.59,-248.64"/>
</g>
<!-- [root] provider[&quot;registry.terraform.io/hashicorp/aws&quot;] (close)&#45;&gt;[root] aws_subnet.research_subnet_db_A (expand) -->
<g id="edge28" class="edge">
<title>[root] provider[&quot;registry.terraform.io/hashicorp/aws&quot;] (close)&#45;&gt;[root] aws_subnet.research_subnet_db_A (expand)</title>
<path fill="none" stroke="black" d="M1332.56,-288.76C1276.43,-278.34 1203.31,-264.77 1144.6,-253.86"/>
<polygon fill="black" stroke="black" points="1145.03,-250.39 1134.56,-252 1143.75,-257.27 1145.03,-250.39"/>
</g>
<!-- [root] provider[&quot;registry.terraform.io/hashicorp/aws&quot;] (close)&#45;&gt;[root] aws_subnet.research_subnet_db_B (expand) -->
<g id="edge29" class="edge">
<title>[root] provider[&quot;registry.terraform.io/hashicorp/aws&quot;] (close)&#45;&gt;[root] aws_subnet.research_subnet_db_B (expand)</title>
<path fill="none" stroke="black" d="M1450.5,-288.05C1467.25,-278.75 1488.21,-267.11 1506.23,-257.1"/>
<polygon fill="black" stroke="black" points="1508.3,-259.95 1515.34,-252.03 1504.9,-253.83 1508.3,-259.95"/>
</g>
<!-- [root] provider[&quot;registry.terraform.io/hashicorp/aws&quot;] (close)&#45;&gt;[root] aws_subnet.research_subnet_k8s_A (expand) -->
<g id="edge30" class="edge">
<title>[root] provider[&quot;registry.terraform.io/hashicorp/aws&quot;] (close)&#45;&gt;[root] aws_subnet.research_subnet_k8s_A (expand)</title>
<path fill="none" stroke="black" d="M1216.01,-293.1C1183.56,-291.32 1150.37,-289.56 1119,-288 749.06,-269.63 653.16,-281.71 280.24,-252.06"/>
<polygon fill="black" stroke="black" points="280.5,-248.57 270.26,-251.27 279.95,-255.55 280.5,-248.57"/>
</g>
<!-- [root] provider[&quot;registry.terraform.io/hashicorp/aws&quot;] (close)&#45;&gt;[root] aws_subnet.research_subnet_k8s_B (expand) -->
<g id="edge31" class="edge">
<title>[root] provider[&quot;registry.terraform.io/hashicorp/aws&quot;] (close)&#45;&gt;[root] aws_subnet.research_subnet_k8s_B (expand)</title>
<path fill="none" stroke="black" d="M1514.52,-288.94C1576.2,-278.46 1656.95,-264.74 1721.58,-253.76"/>
<polygon fill="black" stroke="black" points="1722.54,-257.15 1731.81,-252.02 1721.36,-250.25 1722.54,-257.15"/>
</g>
<!-- [root] provider[&quot;registry.terraform.io/hashicorp/aws&quot;] (close)&#45;&gt;[root] aws_subnet.research_subnet_public_A (expand) -->
<g id="edge32" class="edge">
<title>[root] provider[&quot;registry.terraform.io/hashicorp/aws&quot;] (close)&#45;&gt;[root] aws_subnet.research_subnet_public_A (expand)</title>
<path fill="none" stroke="black" d="M1215.46,-293.11C1014.21,-281.22 719.64,-263.24 587.88,-252.13"/>
<polygon fill="black" stroke="black" points="587.8,-248.61 577.54,-251.24 587.2,-255.59 587.8,-248.61"/>
</g>
<!-- [root] provider[&quot;registry.terraform.io/hashicorp/aws&quot;] (close)&#45;&gt;[root] aws_subnet.research_subnet_public_B (expand) -->
<g id="edge33" class="edge">
<title>[root] provider[&quot;registry.terraform.io/hashicorp/aws&quot;] (close)&#45;&gt;[root] aws_subnet.research_subnet_public_B (expand)</title>
<path fill="none" stroke="black" d="M1576.12,-290.78C1685.2,-280.69 1834.53,-266.58 1975.76,-252.12"/>
<polygon fill="black" stroke="black" points="1976.33,-255.58 1985.92,-251.08 1975.61,-248.62 1976.33,-255.58"/>
</g>
<!-- [root] root -->
<g id="node17" class="node">
<title>[root] root</title>
<ellipse fill="none" stroke="black" cx="1153" cy="-378" rx="58.49" ry="18"/>
<text text-anchor="middle" x="1153" y="-374.3" font-family="Times,serif" font-size="14.00">[root] root</text>
</g>
<!-- [root] root&#45;&gt;[root] meta.count&#45;boundary (EachMode fixup) -->
<g id="edge35" class="edge">
<title>[root] root&#45;&gt;[root] meta.count&#45;boundary (EachMode fixup)</title>
<path fill="none" stroke="black" d="M1109.97,-365.68C1069.25,-354.96 1007.35,-338.67 959.1,-325.97"/>
<polygon fill="black" stroke="black" points="959.89,-322.56 949.33,-323.4 958.11,-329.33 959.89,-322.56"/>
</g>
<!-- [root] root&#45;&gt;[root] provider[&quot;registry.terraform.io/hashicorp/aws&quot;] (close) -->
<g id="edge36" class="edge">
<title>[root] root&#45;&gt;[root] provider[&quot;registry.terraform.io/hashicorp/aws&quot;] (close)</title>
<path fill="none" stroke="black" d="M1195.9,-365.75C1236.51,-355.11 1298.31,-338.9 1346.73,-326.21"/>
<polygon fill="black" stroke="black" points="1347.75,-329.56 1356.54,-323.64 1345.98,-322.79 1347.75,-329.56"/>
</g>
</g>
</svg>
