<?xml version="1.0" encoding="UTF-8" standalone="no"?>
<!DOCTYPE svg PUBLIC "-//W3C//DTD SVG 1.1//EN"
 "http://www.w3.org/Graphics/SVG/1.1/DTD/svg11.dtd">
<!-- Generated by graphviz version 2.43.0 (0)
 -->
<!-- Title: %3 Pages: 1 -->
<svg width="2261pt" height="836pt"
 viewBox="0.00 0.00 2260.80 836.00" xmlns="http://www.w3.org/2000/svg" xmlns:xlink="http://www.w3.org/1999/xlink">
<g id="graph0" class="graph" transform="scale(1 1) rotate(0) translate(4 832)">
<title>%3</title>
<polygon fill="white" stroke="transparent" points="-4,4 -4,-832 2256.8,-832 2256.8,4 -4,4"/>
<!-- [root] module.vpc.aws_default_route_table.route_table (expand) -->
<g id="node1" class="node">
<title>[root] module.vpc.aws_default_route_table.route_table (expand)</title>
<polygon fill="none" stroke="black" points="1323.93,-324 962.93,-324 962.93,-288 1323.93,-288 1323.93,-324"/>
<text text-anchor="middle" x="1143.43" y="-302.3" font-family="Times,serif" font-size="14.00">module.vpc.aws_default_route_table.route_table</text>
</g>
<!-- [root] module.vpc.aws_internet_gateway.rt_igw (expand) -->
<g id="node3" class="node">
<title>[root] module.vpc.aws_internet_gateway.rt_igw (expand)</title>
<polygon fill="none" stroke="black" points="1248.93,-252 939.93,-252 939.93,-216 1248.93,-216 1248.93,-252"/>
<text text-anchor="middle" x="1094.43" y="-230.3" font-family="Times,serif" font-size="14.00">module.vpc.aws_internet_gateway.rt_igw</text>
</g>
<!-- [root] module.vpc.aws_default_route_table.route_table (expand)&#45;&gt;[root] module.vpc.aws_internet_gateway.rt_igw (expand) -->
<g id="edge3" class="edge">
<title>[root] module.vpc.aws_default_route_table.route_table (expand)&#45;&gt;[root] module.vpc.aws_internet_gateway.rt_igw (expand)</title>
<path fill="none" stroke="black" d="M1131.32,-287.7C1125.56,-279.47 1118.57,-269.48 1112.22,-260.42"/>
<polygon fill="black" stroke="black" points="1115,-258.29 1106.4,-252.1 1109.27,-262.3 1115,-258.29"/>
</g>
<!-- [root] module.vpc.aws_eip.rt_nat_eip (expand) -->
<g id="node2" class="node">
<title>[root] module.vpc.aws_eip.rt_nat_eip (expand)</title>
<polygon fill="none" stroke="black" points="1702.93,-468 1467.93,-468 1467.93,-432 1702.93,-432 1702.93,-468"/>
<text text-anchor="middle" x="1585.43" y="-446.3" font-family="Times,serif" font-size="14.00">module.vpc.aws_eip.rt_nat_eip</text>
</g>
<!-- [root] module.vpc.aws_route_table_association.rt_route_associations (expand) -->
<g id="node6" class="node">
<title>[root] module.vpc.aws_route_table_association.rt_route_associations (expand)</title>
<polygon fill="none" stroke="black" points="1654.93,-396 1193.93,-396 1193.93,-360 1654.93,-360 1654.93,-396"/>
<text text-anchor="middle" x="1424.43" y="-374.3" font-family="Times,serif" font-size="14.00">module.vpc.aws_route_table_association.rt_route_associations</text>
</g>
<!-- [root] module.vpc.aws_eip.rt_nat_eip (expand)&#45;&gt;[root] module.vpc.aws_route_table_association.rt_route_associations (expand) -->
<g id="edge4" class="edge">
<title>[root] module.vpc.aws_eip.rt_nat_eip (expand)&#45;&gt;[root] module.vpc.aws_route_table_association.rt_route_associations (expand)</title>
<path fill="none" stroke="black" d="M1546.04,-431.88C1524.03,-422.31 1496.42,-410.3 1473.07,-400.15"/>
<polygon fill="black" stroke="black" points="1474.25,-396.85 1463.69,-396.07 1471.46,-403.27 1474.25,-396.85"/>
</g>
<!-- [root] module.vpc.aws_vpc.rt_vpc (expand) -->
<g id="node8" class="node">
<title>[root] module.vpc.aws_vpc.rt_vpc (expand)</title>
<polygon fill="none" stroke="black" points="1199.93,-180 988.93,-180 988.93,-144 1199.93,-144 1199.93,-180"/>
<text text-anchor="middle" x="1094.43" y="-158.3" font-family="Times,serif" font-size="14.00">module.vpc.aws_vpc.rt_vpc</text>
</g>
<!-- [root] module.vpc.aws_internet_gateway.rt_igw (expand)&#45;&gt;[root] module.vpc.aws_vpc.rt_vpc (expand) -->
<g id="edge5" class="edge">
<title>[root] module.vpc.aws_internet_gateway.rt_igw (expand)&#45;&gt;[root] module.vpc.aws_vpc.rt_vpc (expand)</title>
<path fill="none" stroke="black" d="M1094.43,-215.7C1094.43,-207.98 1094.43,-198.71 1094.43,-190.11"/>
<polygon fill="black" stroke="black" points="1097.93,-190.1 1094.43,-180.1 1090.93,-190.1 1097.93,-190.1"/>
</g>
<!-- [root] module.vpc.aws_nat_gateway.rt_nat_gw (expand) -->
<g id="node4" class="node">
<title>[root] module.vpc.aws_nat_gateway.rt_nat_gw (expand)</title>
<polygon fill="none" stroke="black" points="1808.43,-540 1508.43,-540 1508.43,-504 1808.43,-504 1808.43,-540"/>
<text text-anchor="middle" x="1658.43" y="-518.3" font-family="Times,serif" font-size="14.00">module.vpc.aws_nat_gateway.rt_nat_gw</text>
</g>
<!-- [root] module.vpc.aws_nat_gateway.rt_nat_gw (expand)&#45;&gt;[root] module.vpc.aws_eip.rt_nat_eip (expand) -->
<g id="edge6" class="edge">
<title>[root] module.vpc.aws_nat_gateway.rt_nat_gw (expand)&#45;&gt;[root] module.vpc.aws_eip.rt_nat_eip (expand)</title>
<path fill="none" stroke="black" d="M1640.38,-503.7C1631.37,-495.05 1620.31,-484.45 1610.49,-475.03"/>
<polygon fill="black" stroke="black" points="1612.91,-472.5 1603.27,-468.1 1608.06,-477.55 1612.91,-472.5"/>
</g>
<!-- [root] module.vpc.var.rt_nat_subnet (expand) -->
<g id="node12" class="node">
<title>[root] module.vpc.var.rt_nat_subnet (expand)</title>
<ellipse fill="none" stroke="black" cx="1916.43" cy="-378" rx="219.86" ry="18"/>
<text text-anchor="middle" x="1916.43" y="-374.3" font-family="Times,serif" font-size="14.00">[root] module.vpc.var.rt_nat_subnet (expand)</text>
</g>
<!-- [root] module.vpc.aws_nat_gateway.rt_nat_gw (expand)&#45;&gt;[root] module.vpc.var.rt_nat_subnet (expand) -->
<g id="edge7" class="edge">
<title>[root] module.vpc.aws_nat_gateway.rt_nat_gw (expand)&#45;&gt;[root] module.vpc.var.rt_nat_subnet (expand)</title>
<path fill="none" stroke="black" d="M1689.55,-503.87C1736.46,-478.05 1825.25,-429.19 1876.74,-400.84"/>
<polygon fill="black" stroke="black" points="1878.53,-403.86 1885.6,-395.97 1875.15,-397.72 1878.53,-403.86"/>
</g>
<!-- [root] module.vpc.aws_route_table.rt_nat_gw_rt (expand) -->
<g id="node5" class="node">
<title>[root] module.vpc.aws_route_table.rt_nat_gw_rt (expand)</title>
<polygon fill="none" stroke="black" points="1814.93,-612 1501.93,-612 1501.93,-576 1814.93,-576 1814.93,-612"/>
<text text-anchor="middle" x="1658.43" y="-590.3" font-family="Times,serif" font-size="14.00">module.vpc.aws_route_table.rt_nat_gw_rt</text>
</g>
<!-- [root] module.vpc.aws_route_table.rt_nat_gw_rt (expand)&#45;&gt;[root] module.vpc.aws_nat_gateway.rt_nat_gw (expand) -->
<g id="edge8" class="edge">
<title>[root] module.vpc.aws_route_table.rt_nat_gw_rt (expand)&#45;&gt;[root] module.vpc.aws_nat_gateway.rt_nat_gw (expand)</title>
<path fill="none" stroke="black" d="M1658.43,-575.7C1658.43,-567.98 1658.43,-558.71 1658.43,-550.11"/>
<polygon fill="black" stroke="black" points="1661.93,-550.1 1658.43,-540.1 1654.93,-550.1 1661.93,-550.1"/>
</g>
<!-- [root] module.vpc.aws_route_table_association.rt_route_associations (expand)&#45;&gt;[root] module.vpc.aws_default_route_table.route_table (expand) -->
<g id="edge9" class="edge">
<title>[root] module.vpc.aws_route_table_association.rt_route_associations (expand)&#45;&gt;[root] module.vpc.aws_default_route_table.route_table (expand)</title>
<path fill="none" stroke="black" d="M1356.05,-359.97C1315.59,-349.89 1264.19,-337.08 1222.06,-326.59"/>
<polygon fill="black" stroke="black" points="1222.67,-323.13 1212.12,-324.11 1220.97,-329.92 1222.67,-323.13"/>
</g>
<!-- [root] module.vpc.aws_subnet.rt_subnets (expand) -->
<g id="node7" class="node">
<title>[root] module.vpc.aws_subnet.rt_subnets (expand)</title>
<polygon fill="none" stroke="black" points="1533.43,-252 1267.43,-252 1267.43,-216 1533.43,-216 1533.43,-252"/>
<text text-anchor="middle" x="1400.43" y="-230.3" font-family="Times,serif" font-size="14.00">module.vpc.aws_subnet.rt_subnets</text>
</g>
<!-- [root] module.vpc.aws_route_table_association.rt_route_associations (expand)&#45;&gt;[root] module.vpc.aws_subnet.rt_subnets (expand) -->
<g id="edge10" class="edge">
<title>[root] module.vpc.aws_route_table_association.rt_route_associations (expand)&#45;&gt;[root] module.vpc.aws_subnet.rt_subnets (expand)</title>
<path fill="none" stroke="black" d="M1411.7,-359.85C1405.14,-349.92 1397.82,-336.88 1394.43,-324 1389.08,-303.69 1391.08,-279.92 1394.15,-262.06"/>
<polygon fill="black" stroke="black" points="1397.62,-262.52 1396.08,-252.04 1390.75,-261.19 1397.62,-262.52"/>
</g>
<!-- [root] module.vpc.var.rt_route_associations (expand) -->
<g id="node13" class="node">
<title>[root] module.vpc.var.rt_route_associations (expand)</title>
<ellipse fill="none" stroke="black" cx="1658.43" cy="-306" rx="254.55" ry="18"/>
<text text-anchor="middle" x="1658.43" y="-302.3" font-family="Times,serif" font-size="14.00">[root] module.vpc.var.rt_route_associations (expand)</text>
</g>
<!-- [root] module.vpc.aws_route_table_association.rt_route_associations (expand)&#45;&gt;[root] module.vpc.var.rt_route_associations (expand) -->
<g id="edge11" class="edge">
<title>[root] module.vpc.aws_route_table_association.rt_route_associations (expand)&#45;&gt;[root] module.vpc.var.rt_route_associations (expand)</title>
<path fill="none" stroke="black" d="M1481.37,-359.97C1515.13,-349.87 1558.04,-337.03 1593.16,-326.52"/>
<polygon fill="black" stroke="black" points="1594.27,-329.85 1602.85,-323.63 1592.27,-323.14 1594.27,-329.85"/>
</g>
<!-- [root] module.vpc.aws_subnet.rt_subnets (expand)&#45;&gt;[root] module.vpc.aws_vpc.rt_vpc (expand) -->
<g id="edge12" class="edge">
<title>[root] module.vpc.aws_subnet.rt_subnets (expand)&#45;&gt;[root] module.vpc.aws_vpc.rt_vpc (expand)</title>
<path fill="none" stroke="black" d="M1325.96,-215.97C1281.55,-205.8 1225.01,-192.87 1178.93,-182.33"/>
<polygon fill="black" stroke="black" points="1179.49,-178.87 1168.96,-180.05 1177.93,-185.69 1179.49,-178.87"/>
</g>
<!-- [root] module.vpc.var.rt_subnets (expand) -->
<g id="node14" class="node">
<title>[root] module.vpc.var.rt_subnets (expand)</title>
<ellipse fill="none" stroke="black" cx="1451.43" cy="-162" rx="205.26" ry="18"/>
<text text-anchor="middle" x="1451.43" y="-158.3" font-family="Times,serif" font-size="14.00">[root] module.vpc.var.rt_subnets (expand)</text>
</g>
<!-- [root] module.vpc.aws_subnet.rt_subnets (expand)&#45;&gt;[root] module.vpc.var.rt_subnets (expand) -->
<g id="edge13" class="edge">
<title>[root] module.vpc.aws_subnet.rt_subnets (expand)&#45;&gt;[root] module.vpc.var.rt_subnets (expand)</title>
<path fill="none" stroke="black" d="M1413.04,-215.7C1419.03,-207.47 1426.31,-197.48 1432.91,-188.42"/>
<polygon fill="black" stroke="black" points="1435.91,-190.25 1438.97,-180.1 1430.25,-186.13 1435.91,-190.25"/>
</g>
<!-- [root] module.vpc.provider[&quot;registry.terraform.io/hashicorp/aws&quot;] -->
<g id="node9" class="node">
<title>[root] module.vpc.provider[&quot;registry.terraform.io/hashicorp/aws&quot;]</title>
<polygon fill="none" stroke="black" points="404.43,-108 0.07,-90 404.43,-72 808.79,-90 404.43,-108"/>
<text text-anchor="middle" x="404.43" y="-86.3" font-family="Times,serif" font-size="14.00">module.vpc.provider[&quot;registry.terraform.io/hashicorp/aws&quot;]</text>
</g>
<!-- [root] module.vpc.aws_vpc.rt_vpc (expand)&#45;&gt;[root] module.vpc.provider[&quot;registry.terraform.io/hashicorp/aws&quot;] -->
<g id="edge14" class="edge">
<title>[root] module.vpc.aws_vpc.rt_vpc (expand)&#45;&gt;[root] module.vpc.provider[&quot;registry.terraform.io/hashicorp/aws&quot;]</title>
<path fill="none" stroke="black" d="M988.88,-150.29C865.81,-137.81 662.51,-117.18 531.05,-103.85"/>
<polygon fill="black" stroke="black" points="531.23,-100.35 520.92,-102.82 530.52,-107.31 531.23,-100.35"/>
</g>
<!-- [root] module.vpc.var.environment (expand) -->
<g id="node15" class="node">
<title>[root] module.vpc.var.environment (expand)</title>
<ellipse fill="none" stroke="black" cx="1042.43" cy="-90" rx="215.26" ry="18"/>
<text text-anchor="middle" x="1042.43" y="-86.3" font-family="Times,serif" font-size="14.00">[root] module.vpc.var.environment (expand)</text>
</g>
<!-- [root] module.vpc.aws_vpc.rt_vpc (expand)&#45;&gt;[root] module.vpc.var.environment (expand) -->
<g id="edge15" class="edge">
<title>[root] module.vpc.aws_vpc.rt_vpc (expand)&#45;&gt;[root] module.vpc.var.environment (expand)</title>
<path fill="none" stroke="black" d="M1081.58,-143.7C1075.4,-135.39 1067.89,-125.28 1061.11,-116.14"/>
<polygon fill="black" stroke="black" points="1063.91,-114.04 1055.14,-108.1 1058.29,-118.22 1063.91,-114.04"/>
</g>
<!-- [root] module.vpc.var.rt_vpc (expand) -->
<g id="node16" class="node">
<title>[root] module.vpc.var.rt_vpc (expand)</title>
<ellipse fill="none" stroke="black" cx="1460.43" cy="-90" rx="184.67" ry="18"/>
<text text-anchor="middle" x="1460.43" y="-86.3" font-family="Times,serif" font-size="14.00">[root] module.vpc.var.rt_vpc (expand)</text>
</g>
<!-- [root] module.vpc.aws_vpc.rt_vpc (expand)&#45;&gt;[root] module.vpc.var.rt_vpc (expand) -->
<g id="edge16" class="edge">
<title>[root] module.vpc.aws_vpc.rt_vpc (expand)&#45;&gt;[root] module.vpc.var.rt_vpc (expand)</title>
<path fill="none" stroke="black" d="M1183.49,-143.97C1240.28,-133.1 1313.63,-119.08 1370.57,-108.19"/>
<polygon fill="black" stroke="black" points="1371.48,-111.58 1380.65,-106.26 1370.17,-104.7 1371.48,-111.58"/>
</g>
<!-- [root] module.vpc (expand) -->
<g id="node18" class="node">
<title>[root] module.vpc (expand)</title>
<ellipse fill="none" stroke="black" cx="1566.43" cy="-18" rx="135.68" ry="18"/>
<text text-anchor="middle" x="1566.43" y="-14.3" font-family="Times,serif" font-size="14.00">[root] module.vpc (expand)</text>
</g>
<!-- [root] module.vpc.provider[&quot;registry.terraform.io/hashicorp/aws&quot;]&#45;&gt;[root] module.vpc (expand) -->
<g id="edge18" class="edge">
<title>[root] module.vpc.provider[&quot;registry.terraform.io/hashicorp/aws&quot;]&#45;&gt;[root] module.vpc (expand)</title>
<path fill="none" stroke="black" d="M566.92,-79.21C799.24,-65.22 1221.78,-39.76 1435.36,-26.9"/>
<polygon fill="black" stroke="black" points="1435.6,-30.39 1445.37,-26.29 1435.18,-23.4 1435.6,-30.39"/>
</g>
<!-- [root] meta.count&#45;boundary (EachMode fixup) -->
<g id="node10" class="node">
<title>[root] meta.count&#45;boundary (EachMode fixup)</title>
<ellipse fill="none" stroke="black" cx="1532.43" cy="-738" rx="222.86" ry="18"/>
<text text-anchor="middle" x="1532.43" y="-734.3" font-family="Times,serif" font-size="14.00">[root] meta.count&#45;boundary (EachMode fixup)</text>
</g>
<!-- [root] module.vpc (close) -->
<g id="node11" class="node">
<title>[root] module.vpc (close)</title>
<ellipse fill="none" stroke="black" cx="1412.43" cy="-666" rx="126.18" ry="18"/>
<text text-anchor="middle" x="1412.43" y="-662.3" font-family="Times,serif" font-size="14.00">[root] module.vpc (close)</text>
</g>
<!-- [root] meta.count&#45;boundary (EachMode fixup)&#45;&gt;[root] module.vpc (close) -->
<g id="edge1" class="edge">
<title>[root] meta.count&#45;boundary (EachMode fixup)&#45;&gt;[root] module.vpc (close)</title>
<path fill="none" stroke="black" d="M1503.38,-720.05C1487.2,-710.61 1466.87,-698.76 1449.55,-688.65"/>
<polygon fill="black" stroke="black" points="1451.2,-685.56 1440.8,-683.55 1447.67,-691.61 1451.2,-685.56"/>
</g>
<!-- [root] module.vpc (close)&#45;&gt;[root] module.vpc.aws_route_table.rt_nat_gw_rt (expand) -->
<g id="edge2" class="edge">
<title>[root] module.vpc (close)&#45;&gt;[root] module.vpc.aws_route_table.rt_nat_gw_rt (expand)</title>
<path fill="none" stroke="black" d="M1466.41,-649.64C1502.4,-639.4 1550.04,-625.84 1588.86,-614.8"/>
<polygon fill="black" stroke="black" points="1589.87,-618.15 1598.53,-612.04 1587.95,-611.41 1589.87,-618.15"/>
</g>
<!-- [root] module.vpc.var.rt_nat_subnet (expand)&#45;&gt;[root] module.vpc (expand) -->
<g id="edge20" class="edge">
<title>[root] module.vpc.var.rt_nat_subnet (expand)&#45;&gt;[root] module.vpc (expand)</title>
<path fill="none" stroke="black" d="M1921.49,-359.68C1928.79,-333.11 1941.43,-280.56 1941.43,-235 1941.43,-235 1941.43,-235 1941.43,-161 1941.43,-100.27 1767.22,-56.36 1656.28,-34.55"/>
<polygon fill="black" stroke="black" points="1656.9,-31.1 1646.42,-32.64 1655.57,-37.98 1656.9,-31.1"/>
</g>
<!-- [root] module.vpc.var.rt_route_associations (expand)&#45;&gt;[root] module.vpc (expand) -->
<g id="edge21" class="edge">
<title>[root] module.vpc.var.rt_route_associations (expand)&#45;&gt;[root] module.vpc (expand)</title>
<path fill="none" stroke="black" d="M1665.66,-287.87C1681.7,-246.97 1715.57,-141.81 1672.43,-72 1663.3,-57.22 1648.66,-46.43 1633.14,-38.6"/>
<polygon fill="black" stroke="black" points="1634.48,-35.36 1623.93,-34.32 1631.53,-41.71 1634.48,-35.36"/>
</g>
<!-- [root] module.vpc.var.rt_subnets (expand)&#45;&gt;[root] module.vpc (expand) -->
<g id="edge22" class="edge">
<title>[root] module.vpc.var.rt_subnets (expand)&#45;&gt;[root] module.vpc (expand)</title>
<path fill="none" stroke="black" d="M1552.79,-146.34C1596.76,-137.7 1641.24,-125.08 1654.43,-108 1664.21,-95.34 1662.3,-85.93 1654.43,-72 1646.73,-58.37 1633.96,-47.86 1620.51,-39.93"/>
<polygon fill="black" stroke="black" points="1622.07,-36.79 1611.62,-35.08 1618.72,-42.94 1622.07,-36.79"/>
</g>
<!-- [root] module.vpc.var.environment (expand)&#45;&gt;[root] module.vpc (expand) -->
<g id="edge19" class="edge">
<title>[root] module.vpc.var.environment (expand)&#45;&gt;[root] module.vpc (expand)</title>
<path fill="none" stroke="black" d="M1151.32,-74.45C1243.37,-62.16 1374.27,-44.67 1464.34,-32.64"/>
<polygon fill="black" stroke="black" points="1464.85,-36.1 1474.3,-31.31 1463.92,-29.16 1464.85,-36.1"/>
</g>
<!-- [root] module.vpc.var.rt_vpc (expand)&#45;&gt;[root] module.vpc (expand) -->
<g id="edge23" class="edge">
<title>[root] module.vpc.var.rt_vpc (expand)&#45;&gt;[root] module.vpc (expand)</title>
<path fill="none" stroke="black" d="M1486.09,-72.05C1500.02,-62.85 1517.42,-51.36 1532.47,-41.43"/>
<polygon fill="black" stroke="black" points="1534.59,-44.22 1541.01,-35.79 1530.73,-38.38 1534.59,-44.22"/>
</g>
<!-- [root] module.vpc.provider[&quot;registry.terraform.io/hashicorp/aws&quot;] (close) -->
<g id="node17" class="node">
<title>[root] module.vpc.provider[&quot;registry.terraform.io/hashicorp/aws&quot;] (close)</title>
<ellipse fill="none" stroke="black" cx="1904.43" cy="-666" rx="348.24" ry="18"/>
<text text-anchor="middle" x="1904.43" y="-662.3" font-family="Times,serif" font-size="14.00">[root] module.vpc.provider[&quot;registry.terraform.io/hashicorp/aws&quot;] (close)</text>
</g>
<!-- [root] module.vpc.provider[&quot;registry.terraform.io/hashicorp/aws&quot;] (close)&#45;&gt;[root] module.vpc.aws_route_table.rt_nat_gw_rt (expand) -->
<g id="edge17" class="edge">
<title>[root] module.vpc.provider[&quot;registry.terraform.io/hashicorp/aws&quot;] (close)&#45;&gt;[root] module.vpc.aws_route_table.rt_nat_gw_rt (expand)</title>
<path fill="none" stroke="black" d="M1845.51,-648.23C1810.28,-638.21 1765.32,-625.41 1728.3,-614.88"/>
<polygon fill="black" stroke="black" points="1729.16,-611.49 1718.58,-612.12 1727.24,-618.22 1729.16,-611.49"/>
</g>
<!-- [root] root -->
<g id="node19" class="node">
<title>[root] root</title>
<ellipse fill="none" stroke="black" cx="1657.43" cy="-810" rx="58.49" ry="18"/>
<text text-anchor="middle" x="1657.43" y="-806.3" font-family="Times,serif" font-size="14.00">[root] root</text>
</g>
<!-- [root] root&#45;&gt;[root] meta.count&#45;boundary (EachMode fixup) -->
<g id="edge24" class="edge">
<title>[root] root&#45;&gt;[root] meta.count&#45;boundary (EachMode fixup)</title>
<path fill="none" stroke="black" d="M1630.61,-793.98C1613.4,-784.34 1590.75,-771.66 1571.54,-760.9"/>
<polygon fill="black" stroke="black" points="1573.15,-757.79 1562.71,-755.96 1569.73,-763.9 1573.15,-757.79"/>
</g>
<!-- [root] root&#45;&gt;[root] module.vpc.provider[&quot;registry.terraform.io/hashicorp/aws&quot;] (close) -->
<g id="edge25" class="edge">
<title>[root] root&#45;&gt;[root] module.vpc.provider[&quot;registry.terraform.io/hashicorp/aws&quot;] (close)</title>
<path fill="none" stroke="black" d="M1688.79,-794.55C1710.36,-784.35 1739.51,-770.04 1764.43,-756 1801.56,-735.08 1842.55,-708.61 1870.52,-689.99"/>
<polygon fill="black" stroke="black" points="1872.76,-692.71 1879.13,-684.24 1868.87,-686.89 1872.76,-692.71"/>
</g>
</g>
</svg>
